<svg width="20" height="18" viewBox="0 0 20 18" fill="none" xmlns="http://www.w3.org/2000/svg">
<path d="M0.5 2.375C0.5 1.74511 0.750222 1.14102 1.19562 0.695621C1.64102 0.250222 2.24511 0 2.875 0H11.1875C11.8174 0 12.4215 0.250222 12.8669 0.695621C13.3123 1.14102 13.5625 1.74511 13.5625 2.375V7.12499C13.5625 7.75488 13.3123 8.35897 12.8669 8.80437C12.4215 9.24977 11.8174 9.49999 11.1875 9.49999H8.81249L5.25 13.0625V9.49999H2.875C2.24511 9.49999 1.64102 9.24977 1.19562 8.80437C0.750222 8.35897 0.5 7.75488 0.5 7.12499V2.375Z" fill="#D2EBFF"/>
<path d="M15.9381 4.75V7.125C15.9381 8.38478 15.4376 9.59296 14.5468 10.4838C13.656 11.3745 12.4479 11.875 11.1881 11.875H9.79634L7.69922 13.9733C8.03172 14.1502 8.41053 14.25 8.81309 14.25H11.1881L14.7506 17.8125V14.25H17.1256C17.7555 14.25 18.3596 13.9998 18.805 13.5544C19.2504 13.109 19.5006 12.5049 19.5006 11.875V7.125C19.5006 6.49511 19.2504 5.89102 18.805 5.44562C18.3596 5.00022 17.7555 4.75 17.1256 4.75H15.9381Z" fill="#D2EBFF"/>
</svg>
