<svg width="14" height="14" viewBox="0 0 14 14" fill="none" xmlns="http://www.w3.org/2000/svg">
<path fill-rule="evenodd" clip-rule="evenodd" d="M9.12602 0H2C1.46957 0 0.960859 0.210714 0.585786 0.585786C0.210714 0.960859 0 1.46957 0 2V12C0 12.5304 0.210714 13.0391 0.585786 13.4142C0.960859 13.7893 1.46957 14 2 14H12C12.5304 14 13.0391 13.7893 13.4142 13.4142C13.7893 13.0391 14 12.5304 14 12V4.87398C13.6804 4.95625 13.3453 5 13 5C12.6547 5 12.3196 4.95625 12 4.87398V9H10L9 11H5L4 9H2V2H9.12602C9.04375 1.68038 9 1.3453 9 1C9 0.6547 9.04375 0.31962 9.12602 0Z" fill="#D2EBFF"/>
</svg>
