<svg width="60" height="64" viewBox="0 0 60 64" fill="none" xmlns="http://www.w3.org/2000/svg">
<path d="M16.8203 39.9694C16.2571 40.4969 15.6887 39.8669 15.6887 39.8669C15.6887 39.8669 6.22636 29.8414 5.61194 29.3908C4.74663 28.7611 2.89313 27.7729 1.0394 29.6826C0.266251 30.4764 -0.993146 32.243 1.34684 35.0896C1.85371 35.7043 16.595 51.2393 17.4552 52.079C17.4552 52.079 24.2654 58.7047 28.387 61.1982C29.5289 61.8894 30.8143 62.6216 32.3143 63.1336C33.8096 63.6457 35.4993 63.9991 37.2812 63.9991C39.0629 64.0195 40.9113 63.6764 42.6576 63.0364C44.4035 62.3913 46.0317 61.4542 47.5115 60.3738C47.8751 60.0972 48.2436 59.821 48.5867 59.5238L49.5802 58.7047C50.2714 58.1259 50.9165 57.5166 51.5361 56.8972C52.7803 55.6581 53.9016 54.3318 54.8899 52.975C55.8728 51.613 56.7075 50.2049 57.3731 48.8023C58.0388 47.3989 58.5047 45.9908 58.7863 44.6595C59.0835 43.3335 59.1653 42.0789 59.1191 40.9832C59.1091 39.8875 58.8888 38.9504 58.7097 38.2028C58.5047 37.4553 58.2847 36.8972 58.1106 36.5287C57.9416 36.1599 57.8494 35.9653 57.8494 35.9653C57.6138 35.3047 57.3885 34.675 57.1888 34.1065C56.6256 32.5039 55.9753 30.7067 55.2994 28.8583C55.0128 28.0749 54.8796 27.7217 54.8796 27.7217L54.8847 27.737C52.4015 20.9935 49.7337 14.0452 49.7337 14.0452C49.3293 12.8215 47.8392 12.3965 46.7436 13.1849C43.5791 15.4584 42.6113 18.7765 43.7276 22.3145L46.5898 30.1589C46.9942 31.0346 45.878 32.0483 45.1305 31.439C42.7804 29.5239 37.8084 24.2448 37.8084 24.2448C35.5862 22.1148 23.0466 9.25767 22.2069 8.47446C20.5172 6.90231 18.3872 6.09347 16.764 7.28638C15.1049 8.50514 14.6443 10.3895 16.2468 12.4477C16.6822 13.0058 29.3548 26.3954 29.3548 26.3954C30.0921 27.1686 29.2217 28.2645 28.4077 27.5117C28.4077 27.5117 12.6421 11.0652 11.9305 10.2973C10.3177 8.54607 7.72665 8.162 6.19043 9.60605C4.69038 11.0139 4.726 13.3233 6.36477 15.1358C6.88695 15.7093 17.9928 27.4348 22.4372 32.2377C22.7344 32.5602 22.9647 32.9905 22.5244 33.3949C22.5191 33.3999 22.0738 33.8812 21.5003 33.2668C20.2919 31.9765 8.22327 19.4012 7.55261 18.72C6.01133 17.1534 3.94286 16.4109 2.27877 17.9366C0.763111 19.3243 0.517209 21.7462 2.25815 23.4563L16.8766 38.9094C16.8766 38.9094 17.3528 39.4728 16.8203 39.9694Z" fill="#FAC033"/>
<path d="M40.5527 27.0879L41.7868 28.4089C41.7868 28.4089 34.726 35.224 39.539 45.6901C39.539 45.6901 40.1637 47.0161 39.3446 47.2364C39.3446 47.2364 38.6277 47.636 37.8083 45.5979C37.8083 45.5926 32.9492 35.6543 40.5527 27.0879Z" fill="#E38C25"/>
<path d="M38.9555 15.6278C38.5285 15.6278 38.1293 15.3583 37.9849 14.9311C37.9728 14.8954 36.7388 11.3015 34.1767 8.5538C31.7247 5.92866 29.0643 5.47178 29.0378 5.4675C28.4814 5.37731 28.0998 4.85434 28.187 4.29768C28.2741 3.74059 28.7926 3.3593 29.3495 3.44322C29.4854 3.46353 32.7106 3.98348 35.6743 7.15642C38.5476 10.238 39.8711 14.1142 39.926 14.2777C40.1062 14.8135 39.8181 15.3935 39.2825 15.5741C39.174 15.6108 39.064 15.6278 38.9555 15.6278Z" fill="#444445"/>
<path d="M43.2548 13.0829C42.7482 13.0829 42.3078 12.7066 42.2408 12.1907C42.2363 12.158 41.7739 8.77859 39.9957 5.91738C38.2419 3.09681 36.0084 1.95068 35.9858 1.93935C35.4809 1.68513 35.2775 1.06951 35.5319 0.56409C35.7853 0.0595114 36.4 -0.145213 36.9069 0.109729C37.0189 0.166275 39.6807 1.53165 41.7347 4.83625C43.7539 8.08508 44.252 11.7715 44.2718 11.9267C44.345 12.4876 43.9493 13.0012 43.3884 13.0743C43.3432 13.0801 43.2987 13.0829 43.2548 13.0829Z" fill="#444445"/>
<path d="M14.8944 56.9588C14.0474 56.9588 11.2256 56.7852 8.17418 54.6785C4.70911 52.287 2.58084 48.7872 2.49192 48.6398C2.20051 48.1553 2.35676 47.5268 2.84078 47.2352C3.32456 46.943 3.95381 47.0991 4.24643 47.5831C4.26626 47.6157 6.24659 50.86 9.33766 52.9936C12.3316 55.0601 14.9835 54.9076 15.0117 54.9091C15.5818 54.8621 16.0639 55.2987 16.1013 55.8626C16.139 56.4272 15.712 56.9148 15.1475 56.9523C15.1272 56.9538 15.0401 56.9588 14.8944 56.9588Z" fill="#444445"/>
<path d="M12.827 61.9884C12.1591 61.9884 9.47564 61.8764 6.46294 60.2105C3.11138 58.3572 0.882919 55.38 0.789961 55.2541C0.453094 54.7995 0.548831 54.1584 1.00319 53.8214C1.4581 53.486 2.09915 53.5815 2.43572 54.0349C2.45531 54.0615 4.50293 56.7866 7.45389 58.4183C10.3636 60.0269 12.8674 59.939 12.8955 59.9397C13.468 59.9174 13.9382 60.3549 13.9618 60.9194C13.9859 61.4845 13.5471 61.962 12.9819 61.9859C12.9676 61.9863 12.9146 61.9884 12.827 61.9884Z" fill="#444445"/>
</svg>
