<svg width="96" height="96" viewBox="0 0 96 96" fill="none" xmlns="http://www.w3.org/2000/svg">
<path d="M36.9375 63.1875L40.5 49.875V48L48 53.4375L36.9375 63.1875Z" fill="#5F3F00"/>
<path opacity="0.8" d="M35.4375 63.5625L28.5 41.625L88.875 9.9375L40.875 47.8125L35.4375 63.5625Z" fill="#775309" stroke="#775309"/>
<path d="M93.5625 7.125L41.0625 47.4375L74.0625 65.8125L93.5625 7.125Z" fill="#FAB019"/>
<path d="M89.0625 8.0625L4.5 27.5625L27.75 41.0625L89.0625 8.0625Z" fill="#FAB019"/>
<path d="M95.2434 7.24865C95.2633 7.09845 95.2644 6.94931 95.2413 6.80227C95.2381 6.78021 95.2402 6.75921 95.236 6.73715C95.2014 6.56595 95.1331 6.40421 95.0438 6.25191C95.0344 6.23511 95.0333 6.21725 95.0239 6.20045C95.0081 6.17524 94.9829 6.16264 94.9661 6.13848C94.9304 6.08807 94.9031 6.03135 94.86 5.98514C94.8064 5.92632 94.7413 5.88326 94.6815 5.83389C94.6489 5.80764 94.6205 5.77718 94.5869 5.75407C94.4462 5.65639 94.2928 5.58182 94.129 5.53456C94.0996 5.52616 94.0702 5.52511 94.0408 5.5188C93.9021 5.48729 93.7603 5.47574 93.6164 5.48309C93.5681 5.48519 93.523 5.4894 93.4747 5.4957C93.4337 5.502 93.3917 5.4978 93.3507 5.5062L1.97463 25.9408C1.33289 26.0847 0.847653 26.612 0.757328 27.2632C0.668052 27.9143 0.992595 28.554 1.57131 28.8649L26.2775 42.1627L33.9731 66.6977C33.9815 66.724 33.9993 66.7429 34.0088 66.7681C34.0308 66.8269 34.0634 66.8794 34.0928 66.9361C34.1548 67.0559 34.2262 67.1651 34.3144 67.2638C34.3375 67.2901 34.3459 67.3237 34.3711 67.3479C34.3942 67.3699 34.4236 67.3773 34.4478 67.3983C34.5518 67.4886 34.6652 67.5611 34.7892 67.622C34.8385 67.6461 34.8816 67.6777 34.932 67.6955C35.1042 67.7596 35.2849 67.8005 35.475 67.8005C35.4865 67.8005 35.4981 67.8005 35.5097 67.8005C35.6977 67.7963 35.8762 67.7543 36.0443 67.6882C36.0873 67.6713 36.123 67.6419 36.164 67.622C36.2974 67.5558 36.4203 67.476 36.5305 67.3752C36.5516 67.3563 36.5789 67.35 36.5988 67.329L49.2119 54.5058L73.5578 67.6104C73.7899 67.7354 74.0473 67.7995 74.3046 67.7995C74.502 67.7995 74.7016 67.7627 74.8896 67.6871C75.3223 67.5149 75.6563 67.1578 75.8023 66.7145L95.1898 7.53538C95.2045 7.48917 95.2056 7.44085 95.2161 7.39359C95.2276 7.34528 95.2371 7.29801 95.2434 7.24865ZM82.0663 11.2587L27.603 39.3007L6.78395 28.094L82.0663 11.2587ZM78.7946 16.4881L39.401 46.7063C39.3979 46.7084 39.3958 46.7126 39.3937 46.7147C39.276 46.8061 39.1742 46.9185 39.0849 47.0445C39.066 47.0708 39.0481 47.097 39.0313 47.1243C39.0135 47.1537 38.9903 47.179 38.9735 47.2094C38.9168 47.3144 38.8759 47.4237 38.8454 47.534C38.8444 47.5392 38.8402 47.5434 38.8391 47.5487L35.3542 60.5797L29.4872 41.8749L78.7946 16.4881ZM38.5387 60.8654L41.3672 50.2868L46.3214 52.9535L38.5387 60.8654ZM73.3929 63.948L43.2514 47.7241L90.6094 11.3963L73.3929 63.948Z" fill="#775309"/>
<path d="M14.285 90.5186C13.8859 90.5186 13.4868 90.3674 13.1801 90.066C12.5594 89.4557 12.551 88.459 13.1612 87.8383L28.1721 72.5795C28.7823 71.9577 29.7801 71.9514 30.3998 72.5606C31.0205 73.1708 31.0289 74.1676 30.4187 74.7883L15.4088 90.0481C15.1 90.3621 14.6925 90.5186 14.285 90.5186Z" fill="#775309"/>
<path d="M38.9999 84.3331C38.6007 84.3331 38.2016 84.1819 37.8949 83.8804C37.2742 83.2702 37.2658 82.2735 37.876 81.6527L52.8859 66.395C53.4972 65.7743 54.4939 65.767 55.1136 66.3761C55.7343 66.9864 55.7427 67.9831 55.1325 68.6038L40.1237 83.8626C39.8149 84.1756 39.4074 84.3331 38.9999 84.3331Z" fill="#775309"/>
<path d="M9.59556 71.3476C9.19645 71.3476 8.79734 71.1964 8.49065 70.8949C7.86992 70.2847 7.86152 69.288 8.47174 68.6672L19.4421 57.5152C20.0523 56.8944 21.0501 56.8871 21.6698 57.4962C22.2905 58.1065 22.2989 59.1032 21.6887 59.7239L10.7194 70.876C10.4106 71.1901 10.0031 71.3476 9.59556 71.3476Z" fill="#775309"/>
</svg>
