<svg width="1440" height="1170" viewBox="0 0 1440 1170" fill="none" xmlns="http://www.w3.org/2000/svg">
<rect width="1440" height="1170" fill="#FAFAF9"/>
<g clip-path="url(#clip0_3762_131003)">
<rect width="1440" height="1170" fill="white"/>
<path d="M1366.24 48.1968L1416.72 6.21707L1415.36 6.79558L1366.05 47.7509L1366.24 48.1968Z" fill="#E4E4E3"/>
<path d="M1432.07 253.462L1502.93 226.844L1473.6 267.926L1431.87 252.983L1432.09 253.517L1473.64 268.41C1473.73 268.434 1473.83 268.399 1473.89 268.321L1503.73 226.51C1503.79 226.429 1503.79 226.318 1503.72 226.238C1503.66 226.158 1503.56 226.127 1503.46 226.161L1431.89 253.04L1432.07 253.462Z" fill="#E4E4E3"/>
<path d="M1366.24 48.1968L1416.72 6.21707L1415.36 6.79558L1366.05 47.7509L1366.24 48.1968Z" fill="#E4E4E3"/>
<path d="M1366.33 48.4081L1421.23 40.7401C1421.36 40.7158 1421.44 40.6017 1421.42 40.4766L1416.04 6.50708L1415.6 6.69162L1420.93 40.3224L1366.14 47.9722L1366.33 48.4081Z" fill="#E4E4E3"/>
<path d="M1414.09 154.116L1429.84 120.428L1451.28 117.301L1413.9 153.661L1414.09 154.116L1452.11 117.138C1452.18 117.067 1452.2 116.96 1452.16 116.872C1452.11 116.782 1452.01 116.731 1451.92 116.745L1429.68 119.986C1429.66 119.989 1429.64 119.994 1429.62 120.002C1429.58 120.019 1429.55 120.043 1429.53 120.076L1413.88 153.626L1414.09 154.116Z" fill="#E4E4E3"/>
<path d="M1464.84 -9.51489L1464.33 -9.30243L1481.06 7.65077L1416.83 6.17204L1415.82 6.59939L1481.83 8.13518C1481.93 8.14004 1482.02 8.07448 1482.05 7.97735C1482.09 7.88023 1482.05 7.7746 1481.97 7.71633L1464.84 -9.51489Z" fill="#E4E4E3"/>
<path d="M1481.84 7.67635L1416.83 6.17212L1415.82 6.59947L1480.98 8.10734L1421.38 40.1574L1416.04 6.5072L1415.61 6.69174L1420.97 40.5484C1420.99 40.6224 1421.03 40.6856 1421.1 40.7183C1421.17 40.7511 1421.25 40.7475 1421.31 40.7147L1481.95 8.10855C1482.04 8.05877 1482.08 7.95437 1482.06 7.8536C1482.04 7.75162 1481.95 7.67999 1481.84 7.67635Z" fill="#E4E4E3"/>
<path d="M1414.09 154.114L1452.02 117.226L1488.11 126.441L1397.31 184.289L1397.49 184.714L1488.84 126.561C1488.92 126.514 1488.96 126.424 1488.95 126.331C1488.94 126.238 1488.87 126.161 1488.78 126.139L1452.01 116.749C1451.96 116.737 1451.9 116.741 1451.86 116.76C1451.83 116.771 1451.81 116.787 1451.79 116.807L1413.9 153.66L1414.09 154.114Z" fill="#E4E4E3"/>
<path d="M1436.03 274.402L1473.4 268.402L1468.2 308.072L1468.48 308.733L1473.92 268.255C1473.94 268.187 1473.93 268.114 1473.89 268.057C1473.85 267.999 1473.79 267.963 1473.72 267.958L1435.83 273.93L1436.03 274.402Z" fill="#E4E4E3"/>
<path d="M1432.09 253.517L1471.43 267.831L1435.82 273.931L1436.02 274.402L1473.69 268.418C1473.8 268.424 1473.91 268.34 1473.93 268.223C1473.94 268.107 1473.87 267.996 1473.76 267.966L1431.87 252.983L1432.09 253.517Z" fill="#E4E4E3"/>
<path d="M1481.75 7.69561C1481.81 7.67012 1481.88 7.67133 1481.94 7.70047C1482 7.73204 1482.05 7.79395 1482.06 7.86558L1492.91 67.5405C1492.93 67.6218 1492.9 67.7056 1492.83 67.7578C1492.77 67.81 1492.68 67.8258 1492.6 67.7967L1421.12 40.7291C1421.04 40.6963 1420.98 40.6186 1420.97 40.5288C1420.97 40.4389 1421.01 40.354 1421.09 40.3115L1481.73 7.70411C1481.73 7.70168 1481.74 7.69804 1481.75 7.69561ZM1492.39 67.2224L1481.67 8.25894L1421.75 40.4778L1492.39 67.2224Z" fill="#E4E4E3"/>
<path d="M1421.12 40.302C1421.17 40.2789 1421.23 40.2777 1421.29 40.2983L1492.77 67.3671C1492.85 67.3962 1492.9 67.463 1492.92 67.5431C1492.93 67.6233 1492.9 67.7058 1492.84 67.758L1429.86 120.39C1429.8 120.444 1429.71 120.458 1429.63 120.427C1429.55 120.395 1429.5 120.322 1429.49 120.238L1420.98 40.5375C1420.97 40.4586 1421 40.3809 1421.07 40.3323C1421.08 40.3202 1421.1 40.3092 1421.12 40.302ZM1492.24 67.6573L1421.47 40.8604L1429.9 119.761L1492.24 67.6573Z" fill="#E4E4E3"/>
<path d="M1492.6 67.3695C1492.69 67.3343 1492.78 67.3501 1492.85 67.4181C1492.94 67.5018 1492.94 67.6354 1492.87 67.7264L1452.13 117.118C1452.1 117.162 1452.05 117.19 1451.99 117.2L1429.75 120.44C1429.65 120.454 1429.55 120.4 1429.51 120.306C1429.46 120.213 1429.49 120.102 1429.57 120.037L1492.54 67.4047C1492.56 67.3901 1492.58 67.378 1492.6 67.3695ZM1451.84 116.758L1490.94 69.3448L1430.49 119.869L1451.84 116.758Z" fill="#E4E4E3"/>
<path d="M1397.49 184.715L1487.98 127.048L1444.87 226.456L1445.09 226.957L1488.92 126.492C1488.98 126.403 1488.97 126.286 1488.9 126.207C1488.83 126.134 1488.73 126.112 1488.64 126.15C1488.63 126.153 1488.62 126.157 1488.62 126.161L1397.31 184.289L1397.49 184.715Z" fill="#E4E4E3"/>
<path d="M1444.95 226.963L1502.21 226.615L1431.89 253.04L1432.07 253.462L1503.62 226.593C1503.74 226.553 1503.79 226.447 1503.77 226.337C1503.75 226.226 1503.65 226.147 1503.54 226.147L1444.75 226.505L1444.95 226.963Z" fill="#E4E4E3"/>
<path d="M1398.1 122.356L1429.23 120.466L1413.88 153.626L1414.08 154.114L1429.89 120.351C1429.94 120.279 1429.95 120.184 1429.91 120.105C1429.87 120.027 1429.78 119.978 1429.69 119.983L1397.91 121.905L1398.1 122.356Z" fill="#E4E4E3"/>
<path d="M1386.7 95.8162L1421.04 41.1857L1429.43 119.799L1386.56 95.4726L1386.85 96.1585L1429.6 120.414C1429.67 120.456 1429.76 120.453 1429.84 120.405C1429.91 120.357 1429.95 120.275 1429.94 120.19L1421.43 40.4888C1421.42 40.3929 1421.35 40.3128 1421.25 40.2897C1421.21 40.2788 1421.16 40.2836 1421.11 40.3019C1421.07 40.3201 1421.03 40.3492 1421.01 40.3893L1386.48 95.3038L1386.7 95.8162Z" fill="#E4E4E3"/>
<path d="M1366.33 48.408L1420.72 40.8225L1386.48 95.3037L1386.7 95.816L1421.39 40.6368C1421.44 40.5603 1421.44 40.4632 1421.39 40.3867C1421.34 40.3114 1421.25 40.2714 1421.16 40.2859L1366.14 47.9722L1366.33 48.408Z" fill="#E4E4E3"/>
<path d="M1386.84 96.1586L1428.89 120.025L1397.91 121.906L1398.1 122.357L1429.72 120.444C1429.82 120.439 1429.91 120.366 1429.93 120.265C1429.95 120.166 1429.91 120.062 1429.82 120.013L1386.55 95.4739L1386.84 96.1586Z" fill="#E4E4E3"/>
<path d="M1421.89 42.1333C1422.78 41.7544 1423.2 40.7215 1422.82 39.8283C1422.44 38.934 1421.41 38.5159 1420.52 38.8948C1419.62 39.2732 1419.2 40.3061 1419.58 41.1993C1419.96 42.0936 1421 42.5117 1421.89 42.1333Z" fill="#E4E4E3"/>
<path d="M1421.89 42.1333C1421 42.5117 1419.96 42.0936 1419.58 41.1993C1419.2 40.3061 1419.62 39.2732 1420.52 38.8948C1421.41 38.5159 1422.44 38.934 1422.82 39.8283C1423.2 40.7215 1422.78 41.7544 1421.89 42.1333Z" fill="#E4E4E3"/>
<path d="M1422.24 42.9784C1423.6 42.403 1424.24 40.8275 1423.66 39.4692C1423.09 38.111 1421.51 37.4743 1420.15 38.0497C1418.8 38.624 1418.16 40.2 1418.73 41.5578C1419.31 42.916 1420.88 43.5539 1422.24 42.9784Z" fill="#E4E4E3"/>
<path d="M1430.56 122.228C1431.67 121.756 1432.19 120.472 1431.72 119.359C1431.25 118.247 1429.97 117.727 1428.85 118.198C1427.74 118.67 1427.22 119.953 1427.69 121.066C1428.16 122.179 1429.45 122.699 1430.56 122.228Z" fill="#E4E4E3"/>
<path d="M1430.56 122.228C1429.45 122.699 1428.16 122.179 1427.69 121.066C1427.22 119.953 1427.74 118.67 1428.85 118.198C1429.97 117.727 1431.25 118.247 1431.72 119.359C1432.19 120.472 1431.67 121.756 1430.56 122.228Z" fill="#E4E4E3"/>
<path d="M1430.93 123.075C1432.5 122.407 1433.24 120.58 1432.58 119.003C1431.91 117.424 1430.08 116.685 1428.5 117.352C1426.93 118.021 1426.19 119.848 1426.85 121.425C1427.52 123.003 1429.35 123.741 1430.93 123.075Z" fill="#E4E4E3"/>
<path d="M1461.95 -10.2977L1415.23 6.42969L1415.02 5.84219L1461.74 -10.8852L1461.95 -10.2977Z" fill="#E4E4E3"/>
<path d="M1386.93 95.7195L1386.44 95.9309L1366.02 48.292L1366.51 48.0806L1386.93 95.7195Z" fill="#E4E4E3"/>
<path d="M1444.81 227.537L1445.55 227.251L1432.64 250.702L1431.9 250.988L1444.81 227.537Z" fill="#E4E4E3"/>
<path d="M1444.64 226.715L1397.55 185.098L1398.01 184.58L1445.1 226.196L1444.64 226.715Z" fill="#E4E4E3"/>
<path d="M1436.01 274.413L1467.67 306.863L1467.52 307.374L1435.86 274.925L1436.01 274.413Z" fill="#E4E4E3"/>
<path d="M1431.62 252.103L1432.11 252.183L1435.81 272.772L1435.32 272.692L1431.62 252.103Z" fill="#E4E4E3"/>
<path d="M1431.71 253.045L1398.04 184.757L1398.45 184.557L1432.12 252.845L1431.71 253.045Z" fill="#E4E4E3"/>
<path d="M1412.06 157.63L1412.79 157.781L1400.18 182.921L1399.45 182.772L1412.06 157.63Z" fill="#E4E4E3"/>
<path d="M1412.46 153.77L1397.65 122.035L1398.09 121.828L1412.9 153.563L1412.46 153.77Z" fill="#E4E4E3"/>
<path d="M1397.46 122.099L1386.39 96.3513L1386.84 96.1582L1397.91 121.906L1397.46 122.099Z" fill="#E4E4E3"/>
<path d="M1415.2 157.762C1416.75 157.106 1417.47 155.321 1416.82 153.774C1416.16 152.227 1414.37 151.504 1412.83 152.159C1411.28 152.815 1410.56 154.6 1411.22 156.147C1411.87 157.694 1413.66 158.418 1415.2 157.762Z" fill="#E4E4E3"/>
<path d="M1415.2 157.762C1413.66 158.418 1411.87 157.694 1411.22 156.147C1410.56 154.6 1411.28 152.816 1412.83 152.159C1414.37 151.504 1416.16 152.227 1416.82 153.774C1417.47 155.321 1416.75 157.106 1415.2 157.762Z" fill="#E4E4E3"/>
<path d="M1415.56 158.607C1417.57 157.756 1418.51 155.427 1417.66 153.417C1416.81 151.406 1414.48 150.462 1412.47 151.314C1410.46 152.166 1409.51 154.495 1410.37 156.507C1411.22 158.517 1413.55 159.46 1415.56 158.607Z" fill="#E4E4E3"/>
<path d="M1430.91 252.852C1431.19 253.515 1431.95 253.824 1432.61 253.542C1433.28 253.263 1433.59 252.499 1433.3 251.836C1433.03 251.173 1432.26 250.864 1431.6 251.144C1430.94 251.425 1430.63 252.189 1430.91 252.852Z" fill="#E4E4E3"/>
<path d="M1432.62 253.543C1431.96 253.823 1431.2 253.514 1430.92 252.853C1430.63 252.189 1430.95 251.425 1431.61 251.144C1432.27 250.864 1433.04 251.174 1433.32 251.836C1433.6 252.498 1433.29 253.263 1432.62 253.543Z" fill="#E4E4E3"/>
<path d="M1432.98 254.389C1434.11 253.911 1434.63 252.605 1434.16 251.478C1433.68 250.35 1432.37 249.821 1431.25 250.298C1430.12 250.776 1429.59 252.083 1430.07 253.21C1430.54 254.338 1431.85 254.866 1432.98 254.389Z" fill="#E4E4E3"/>
<path d="M1367.5 51.1694C1369.03 50.5198 1369.75 48.7486 1369.1 47.2148C1368.45 45.6803 1366.68 44.9643 1365.14 45.6132C1363.61 46.2633 1362.89 48.0325 1363.54 49.5679C1364.19 51.1012 1365.96 51.819 1367.5 51.1694Z" fill="#E4E4E3"/>
<path d="M1367.5 51.1694C1365.96 51.819 1364.19 51.1012 1363.54 49.5679C1362.89 48.0325 1363.61 46.2633 1365.14 45.6132C1366.68 44.9643 1368.45 45.6803 1369.1 47.2148C1369.75 48.7486 1369.03 50.5182 1367.5 51.1694Z" fill="#E4E4E3"/>
<path d="M1367.86 52.0158C1369.86 51.1697 1370.8 48.8558 1369.95 46.8569C1369.11 44.8587 1366.79 43.9221 1364.8 44.7693C1362.8 45.6148 1361.86 47.9287 1362.71 49.9276C1363.55 51.9248 1365.87 52.8624 1367.86 52.0158Z" fill="#E4E4E3"/>
<path d="M1417.01 9.3774C1418.54 8.72781 1419.26 6.95817 1418.61 5.42277C1417.96 3.88943 1416.19 3.17166 1414.65 3.82125C1413.12 4.47243 1412.4 6.24207 1413.05 7.77588C1413.7 9.31081 1415.47 10.0263 1417.01 9.3774Z" fill="#E4E4E3"/>
<path d="M1417.01 9.3774C1415.47 10.0263 1413.7 9.31081 1413.05 7.77588C1412.4 6.24207 1413.12 4.47243 1414.65 3.82125C1416.19 3.17166 1417.96 3.88943 1418.61 5.42277C1419.26 6.95817 1418.54 8.72734 1417.01 9.3774Z" fill="#E4E4E3"/>
<path d="M1417.36 10.224C1419.36 9.37796 1420.3 7.06405 1419.45 5.06519C1418.6 3.06744 1416.29 2.13038 1414.29 2.97759C1412.29 3.82304 1411.36 6.13694 1412.2 8.13581C1413.05 10.1336 1415.36 11.0706 1417.36 10.224Z" fill="#E4E4E3"/>
<path d="M1399.11 187.545C1400.46 186.977 1401.09 185.427 1400.52 184.085C1399.95 182.744 1398.4 182.116 1397.06 182.684C1395.71 183.253 1395.09 184.803 1395.65 186.144C1396.22 187.487 1397.77 188.113 1399.11 187.545Z" fill="#E4E4E3"/>
<path d="M1399.11 187.545C1397.77 188.115 1396.22 187.487 1395.65 186.144C1395.09 184.803 1395.71 183.253 1397.06 182.684C1398.4 182.116 1399.95 182.742 1400.52 184.085C1401.09 185.427 1400.46 186.977 1399.11 187.545Z" fill="#E4E4E3"/>
<path d="M1399.48 188.39C1401.29 187.625 1402.13 185.533 1401.37 183.726C1400.6 181.921 1398.51 181.074 1396.7 181.838C1394.9 182.603 1394.05 184.696 1394.82 186.503C1395.58 188.309 1397.67 189.156 1399.48 188.39Z" fill="#E4E4E3"/>
<path d="M1436.61 275.805C1437.47 275.442 1437.87 274.449 1437.51 273.587C1437.15 272.727 1436.15 272.324 1435.29 272.689C1434.43 273.054 1434.03 274.047 1434.39 274.908C1434.76 275.768 1435.75 276.17 1436.61 275.805Z" fill="#E4E4E3"/>
<path d="M1436.61 275.805C1435.75 276.17 1434.76 275.768 1434.39 274.908C1434.03 274.047 1434.43 273.054 1435.29 272.689C1436.15 272.324 1437.15 272.727 1437.51 273.587C1437.87 274.449 1437.47 275.442 1436.61 275.805Z" fill="#E4E4E3"/>
<path d="M1436.98 276.652C1438.3 276.091 1438.93 274.556 1438.36 273.23C1437.8 271.904 1436.27 271.282 1434.94 271.844C1433.62 272.406 1432.99 273.941 1433.56 275.267C1434.12 276.593 1435.65 277.215 1436.98 276.652Z" fill="#E4E4E3"/>
<path d="M1387.56 97.8302C1388.67 97.359 1389.19 96.0747 1388.72 94.9624C1388.25 93.849 1386.96 93.329 1385.85 93.8002C1384.74 94.2719 1384.22 95.5562 1384.69 96.6696C1385.16 97.7815 1386.45 98.3019 1387.56 97.8302Z" fill="#E4E4E3"/>
<path d="M1387.56 97.8302C1386.45 98.3019 1385.16 97.7815 1384.69 96.6696C1384.22 95.5562 1384.74 94.2719 1385.85 93.8002C1386.96 93.329 1388.25 93.849 1388.72 94.9624C1389.19 96.0747 1388.67 97.359 1387.56 97.8302Z" fill="#E4E4E3"/>
<path d="M1387.91 98.6766C1389.49 98.0089 1390.23 96.182 1389.56 94.6046C1388.89 93.0267 1387.07 92.287 1385.49 92.9552C1383.91 93.6234 1383.17 95.4508 1383.84 97.0277C1384.51 98.6051 1386.34 99.3448 1387.91 98.6766Z" fill="#E4E4E3"/>
<path d="M1398.64 124.9C1400.19 124.245 1400.91 122.46 1400.26 120.912C1399.6 119.365 1397.82 118.643 1396.27 119.298C1394.72 119.954 1394 121.739 1394.66 123.286C1395.31 124.832 1397.1 125.556 1398.64 124.9Z" fill="#E4E4E3"/>
<path d="M1398.64 124.9C1397.1 125.556 1395.31 124.832 1394.66 123.286C1394 121.739 1394.72 119.954 1396.27 119.298C1397.82 118.643 1399.6 119.365 1400.26 120.913C1400.91 122.46 1400.19 124.245 1398.64 124.9Z" fill="#E4E4E3"/>
<path d="M1399.01 125.745C1401.02 124.893 1401.96 122.565 1401.11 120.554C1400.26 118.544 1397.93 117.6 1395.92 118.452C1393.91 119.304 1392.96 121.632 1393.82 123.644C1394.67 125.655 1397 126.598 1399.01 125.745Z" fill="#E4E4E3"/>
<g clip-path="url(#clip1_3762_131003)">
<path d="M474.357 1260.35L464.704 1165.74L405.873 1242.03L404.472 1242.38L464.706 1164.61C464.809 1164.5 464.965 1164.46 465.109 1164.51C465.253 1164.55 465.356 1164.68 465.375 1164.83L475.116 1260.16L474.357 1260.35Z" fill="#E4E4E3"/>
<path d="M154.989 998.555C155.055 998.538 155.116 998.506 155.165 998.458C155.244 998.381 155.288 998.274 155.283 998.163L154.569 978.475C154.566 978.366 154.514 978.264 154.433 978.193C154.349 978.122 154.24 978.089 154.132 978.104L55.4892 990.496C55.2774 990.515 55.1429 990.692 55.1492 990.891C55.1539 991.09 55.3099 991.253 55.5089 991.269L154.867 998.565C154.908 998.569 154.951 998.565 154.989 998.555ZM153.807 978.929L154.491 997.758L59.4635 990.779L153.807 978.929Z" fill="#E4E4E3"/>
<path d="M529.652 1211.69L503.257 1125.38L465.529 1164.87L530.847 1211.4L529.974 1211.62L464.71 1165.15C464.564 1165 464.562 1164.76 464.707 1164.61L503.135 1124.38C503.229 1124.29 503.368 1124.24 503.5 1124.27C503.632 1124.3 503.738 1124.4 503.782 1124.53L530.41 1211.51L529.652 1211.69Z" fill="#E4E4E3"/>
<path d="M465.084 1165.25C465.155 1165.23 465.219 1165.2 465.271 1165.14L503.698 1124.92C503.788 1124.83 503.824 1124.7 503.796 1124.57C503.767 1124.44 503.679 1124.34 503.556 1124.29L412.403 1088.71C412.244 1088.65 412.062 1088.7 411.956 1088.84C411.852 1088.97 411.845 1089.16 411.942 1089.3L464.67 1165.1C464.736 1165.19 464.844 1165.25 464.96 1165.26C465.002 1165.27 465.043 1165.26 465.084 1165.25ZM502.735 1124.81L465.037 1164.26L413.311 1089.9L502.735 1124.81Z" fill="#E4E4E3"/>
<path d="M327.551 1201.29L327.554 1201.29L465.088 1165.25C465.21 1165.22 465.31 1165.13 465.354 1165.01C465.397 1164.89 465.381 1164.76 465.309 1164.65L412.581 1088.85C412.51 1088.75 412.394 1088.69 412.269 1088.69C412.144 1088.68 412.027 1088.74 411.952 1088.84L327.147 1200.68C327.046 1200.81 327.04 1200.99 327.134 1201.13C327.225 1201.26 327.392 1201.33 327.551 1201.29ZM464.352 1164.64L328.446 1200.25L412.247 1089.74L464.352 1164.64Z" fill="#E4E4E3"/>
<path d="M405.872 1242.03L404.472 1242.38L463.775 1165.59L328.97 1200.92L406.022 1241.99L404.472 1242.38L327.356 1201.29C327.186 1201.24 327.068 1201.09 327.069 1200.91C327.069 1200.74 327.188 1200.58 327.357 1200.54L464.889 1164.5L464.894 1164.5C465.06 1164.46 465.234 1164.53 465.323 1164.68C465.412 1164.83 465.391 1165.02 465.272 1165.14L405.872 1242.03Z" fill="#E4E4E3"/>
<path d="M-88.2749 1094.46C-88.2292 1094.44 -88.1841 1094.42 -88.1428 1094.39L55.7626 991.196C55.8739 991.116 55.935 990.983 55.925 990.847C55.9116 990.711 55.8296 990.59 55.7057 990.53L-41.4221 943.732C-41.5234 943.683 -41.6421 943.677 -41.7468 943.726C-41.849 943.771 -41.9293 943.858 -41.9627 943.966L-88.7402 1093.96C-88.791 1094.12 -88.7315 1094.3 -88.5976 1094.39C-88.5025 1094.46 -88.3832 1094.48 -88.2749 1094.46ZM54.7772 990.945L-87.6528 1093.09L-41.3544 944.628L54.7772 990.945Z" fill="#E4E4E3"/>
<path d="M327.651 1201.25L224.276 1264.16L221.536 1264.85L326.419 1201.06L155.587 1160.15L224.107 1264.22L223.309 1264.42L154.396 1159.76C154.308 1159.63 154.311 1159.45 154.402 1159.32C154.494 1159.19 154.657 1159.13 154.812 1159.17L327.547 1200.54C327.701 1200.57 327.819 1200.7 327.842 1200.86C327.865 1201.01 327.79 1201.17 327.651 1201.25Z" fill="#E4E4E3"/>
<path d="M223.309 1264.42L154.635 1160.12L66.9894 1232.77L224.24 1264.18L222.424 1264.64L66.0307 1233.39C65.883 1233.36 65.7638 1233.25 65.7261 1233.1C65.688 1232.95 65.7384 1232.8 65.8542 1232.7L154.474 1159.25C154.559 1159.18 154.669 1159.15 154.779 1159.16C154.888 1159.18 154.985 1159.24 155.046 1159.33L224.109 1264.22L223.309 1264.42Z" fill="#E4E4E3"/>
<path d="M119.082 1042.52C119.161 1042.5 119.234 1042.45 119.288 1042.39L155.196 998.424C155.318 998.275 155.313 998.06 155.182 997.917C155.053 997.773 154.835 997.749 154.678 997.854L91.0091 1040.43C90.8692 1040.52 90.8054 1040.69 90.8508 1040.85C90.8946 1041.01 91.0379 1041.13 91.2046 1041.14L118.967 1042.53C119.007 1042.53 119.044 1042.53 119.082 1042.52ZM152.948 999.949L118.81 1041.74L92.4175 1040.42L152.948 999.949Z" fill="#E4E4E3"/>
<path d="M91.319 1041.13C91.3613 1041.12 91.4018 1041.1 91.4406 1041.07L155.112 998.502C155.248 998.409 155.313 998.241 155.271 998.08C155.228 997.92 155.089 997.802 154.922 997.791L55.5651 990.494C55.4183 990.478 55.2711 990.558 55.1972 990.691C55.125 990.823 55.1327 990.985 55.2202 991.107L90.9078 1040.98C91.0039 1041.11 91.168 1041.16 91.319 1041.13ZM153.739 998.484L91.3198 1040.22L56.336 991.331L153.739 998.484Z" fill="#E4E4E3"/>
<path d="M154.816 1159.92C154.834 1159.92 154.852 1159.91 154.87 1159.91C155.055 1159.83 155.151 1159.62 155.093 1159.43L119.358 1042.03C119.313 1041.87 119.17 1041.76 119.008 1041.75L91.2446 1040.36C91.1055 1040.35 90.9717 1040.42 90.896 1040.54C90.822 1040.66 90.8173 1040.81 90.882 1040.93L154.379 1159.73C154.463 1159.89 154.644 1159.97 154.816 1159.92ZM118.694 1042.52L153.196 1155.86L91.8915 1041.17L118.694 1042.52Z" fill="#E4E4E3"/>
<path d="M-88.275 1094.46L-88.2597 1094.45L91.3355 1041.12C91.4543 1041.09 91.5497 1040.99 91.5911 1040.88C91.6325 1040.76 91.6127 1040.62 91.5394 1040.52L55.8534 990.654C55.7921 990.571 55.7013 990.513 55.5994 990.496C55.4976 990.479 55.3922 990.505 55.3101 990.564L-88.5953 1093.76C-88.7508 1093.87 -88.802 1094.08 -88.7183 1094.25C-88.6377 1094.41 -88.453 1094.5 -88.275 1094.46ZM90.5904 1040.53L-86.2655 1093.05L55.4462 991.424L90.5904 1040.53Z" fill="#E4E4E3"/>
<path d="M55.631 991.259C55.6767 991.247 55.7223 991.228 55.7636 991.199C55.8777 991.117 55.9393 990.979 55.9246 990.838L39.2129 842.044C39.1955 841.886 39.0842 841.756 38.9325 841.714C38.7821 841.67 38.6185 841.721 38.5208 841.846L-41.895 943.844C-41.9688 943.936 -41.997 944.057 -41.9706 944.173C-41.943 944.286 -41.8654 944.384 -41.7586 944.434L55.3676 991.232C55.4501 991.271 55.5447 991.281 55.631 991.259ZM38.5455 843.07L55.073 990.226L-40.9846 943.944L38.5455 843.07Z" fill="#E4E4E3"/>
<path d="M-41.4968 944.461C-41.4156 944.44 -41.3393 944.393 -41.2847 944.325L39.131 842.327C39.2153 842.22 39.2378 842.077 39.1901 841.948C39.1412 841.822 39.0302 841.728 38.8956 841.703L-57.2528 824.066C-57.3776 824.044 -57.5014 824.081 -57.5914 824.166C-57.6827 824.253 -57.7249 824.376 -57.709 824.5L-41.9768 944.134C-41.9564 944.29 -41.8456 944.418 -41.6943 944.458C-41.628 944.477 -41.5594 944.477 -41.4968 944.461ZM38.1212 842.352L-41.3246 943.119L-56.8687 824.928L38.1212 842.352Z" fill="#E4E4E3"/>
<path d="M154.816 1159.92C154.919 1159.9 155.008 1159.83 155.062 1159.74C155.125 1159.62 155.127 1159.48 155.066 1159.36L91.5669 1040.57C91.507 1040.45 91.3957 1040.38 91.2723 1040.36C91.1441 1040.35 91.0174 1040.4 90.9338 1040.49L-23.3705 1169.26C-23.4771 1169.37 -23.4986 1169.54 -23.4296 1169.68C-23.3619 1169.83 -23.2153 1169.91 -23.0586 1169.9L154.743 1159.94C154.769 1159.93 154.792 1159.93 154.816 1159.92ZM91.1448 1041.42L154.092 1159.19L-22.1687 1169.07L91.1448 1041.42Z" fill="#E4E4E3"/>
<path d="M66.1957 1233.38C66.2515 1233.37 66.303 1233.34 66.3489 1233.3L154.969 1159.85C155.098 1159.74 155.145 1159.56 155.084 1159.41C155.02 1159.25 154.868 1159.15 154.699 1159.16L-23.1039 1169.13C-23.2674 1169.14 -23.4081 1169.25 -23.4538 1169.41C-23.4995 1169.57 -23.4408 1169.74 -23.3061 1169.83L65.8765 1233.32C65.972 1233.39 66.0891 1233.41 66.1957 1233.38ZM153.563 1160L66.0828 1232.51L-21.9514 1169.84L153.563 1160Z" fill="#E4E4E3"/>
<path d="M-22.9862 1169.89C-22.9117 1169.87 -22.843 1169.83 -22.7897 1169.77L91.5147 1041.01C91.6293 1040.88 91.6446 1040.69 91.5527 1040.54C91.4586 1040.39 91.272 1040.34 91.1147 1040.38L-88.4805 1093.71C-88.6077 1093.74 -88.7065 1093.84 -88.7423 1093.97C-88.7798 1094.1 -88.7498 1094.23 -88.6642 1094.33L-23.3755 1169.77C-23.301 1169.85 -23.1963 1169.9 -23.084 1169.9C-23.0501 1169.9 -23.0183 1169.9 -22.9862 1169.89ZM90.0291 1041.51L-23.0778 1168.92L-87.68 1094.28L90.0291 1041.51Z" fill="#E4E4E3"/>
<path d="M23.1906 1261.64C23.2312 1261.63 23.2717 1261.61 23.3105 1261.58L66.3175 1233.33C66.4237 1233.26 66.4889 1233.14 66.4916 1233.01C66.4926 1232.88 66.4323 1232.76 66.3265 1232.69L-22.8543 1169.2C-23.0006 1169.09 -23.1963 1169.1 -23.3344 1169.22C-23.4686 1169.34 -23.5085 1169.53 -23.4275 1169.69L22.748 1261.43C22.7976 1261.53 22.8885 1261.61 22.9952 1261.63C23.0593 1261.65 23.1263 1261.65 23.1906 1261.64ZM65.414 1232.99L23.2479 1260.69L-22.0271 1170.74L65.414 1232.99Z" fill="#E4E4E3"/>
<path d="M23.1902 1261.64C23.2968 1261.61 23.3903 1261.54 23.4403 1261.44C23.4983 1261.33 23.4984 1261.19 23.4441 1261.08L-22.7331 1169.34C-22.7965 1169.21 -22.9222 1169.13 -23.063 1169.13C-23.2016 1169.12 -23.3337 1169.19 -23.4094 1169.31L-92.4626 1278.79C-92.5446 1278.92 -92.5419 1279.08 -92.4582 1279.21C-92.3744 1279.34 -92.2238 1279.4 -92.0727 1279.38L23.1542 1261.64C23.1661 1261.64 23.1784 1261.64 23.1902 1261.64ZM-23.1192 1170.3L22.5067 1260.96L-91.3487 1278.48L-23.1192 1170.3Z" fill="#E4E4E3"/>
<path d="M547.328 1081.08C547.483 1081.04 547.6 1080.91 547.619 1080.74C547.643 1080.56 547.526 1080.38 547.345 1080.33L424.864 1043.85C424.763 1043.82 424.654 1043.84 424.564 1043.89C424.472 1043.94 424.406 1044.02 424.378 1044.12L411.887 1088.97C411.854 1089.09 411.882 1089.22 411.961 1089.32C412.039 1089.42 412.161 1089.47 412.287 1089.46L547.259 1081.09C547.282 1081.08 547.306 1081.08 547.328 1081.08ZM425.02 1044.71L545.024 1080.44L412.783 1088.65L425.02 1044.71Z" fill="#E4E4E3"/>
<path d="M412.356 1089.45C412.367 1089.45 412.378 1089.45 412.39 1089.44C412.509 1089.4 412.603 1089.3 412.636 1089.18L425.125 1044.33C425.159 1044.21 425.133 1044.08 425.057 1043.98C424.979 1043.89 424.858 1043.83 424.734 1043.84L355.385 1046.9C355.223 1046.91 355.078 1047.02 355.031 1047.18C354.983 1047.34 355.04 1047.51 355.174 1047.6L412.031 1089.39C412.125 1089.46 412.245 1089.48 412.356 1089.45ZM424.233 1044.64L412.037 1088.43L356.522 1047.63L424.233 1044.64Z" fill="#E4E4E3"/>
<path d="M160.147 869.714C160.178 869.706 160.209 869.695 160.237 869.678C160.426 869.577 160.497 869.342 160.395 869.152L120.014 794.234C119.913 794.045 119.679 793.971 119.487 794.076C119.297 794.178 119.227 794.414 119.33 794.603L159.711 869.52C159.795 869.681 159.977 869.756 160.147 869.714Z" fill="#E4E4E3"/>
<path d="M160.147 869.714C160.232 869.692 160.308 869.644 160.363 869.572C160.454 869.451 160.468 869.286 160.395 869.152L120.014 794.234C119.964 794.14 119.878 794.072 119.777 794.044C119.674 794.015 119.564 794.031 119.473 794.083L38.6279 841.751C38.49 841.832 38.4171 841.99 38.4418 842.147C38.466 842.304 38.5841 842.432 38.7407 842.465L159.967 869.716C160.029 869.73 160.09 869.729 160.147 869.714ZM119.521 794.959L159.305 868.77L39.8691 841.922L119.521 794.959Z" fill="#E4E4E3"/>
<path d="M154.275 978.867C154.438 978.827 154.56 978.683 154.57 978.511L160.441 869.358C160.451 869.192 160.353 869.038 160.198 868.977C160.044 868.912 159.866 868.957 159.758 869.084L55.2421 990.628C55.1381 990.749 55.1183 990.924 55.1946 991.065C55.2695 991.208 55.4253 991.287 55.5845 991.267L154.229 978.876C154.245 978.873 154.26 978.871 154.275 978.867ZM159.603 870.456L153.809 978.145L56.4895 990.37L159.603 870.456Z" fill="#E4E4E3"/>
<path d="M55.6307 991.259C55.7068 991.239 55.7772 991.197 55.8297 991.135L160.346 869.59C160.437 869.487 160.465 869.345 160.422 869.215C160.378 869.086 160.271 868.989 160.137 868.959L38.911 841.708C38.7895 841.678 38.6614 841.713 38.5658 841.798C38.4737 841.881 38.4248 842.006 38.4407 842.13L55.1506 990.925C55.1672 991.079 55.2742 991.207 55.4217 991.253C55.4901 991.274 55.563 991.276 55.6307 991.259ZM159.335 869.574L55.8231 989.953L39.2736 842.585L159.335 869.574Z" fill="#E4E4E3"/>
<path d="M237.643 1033.88C237.744 1033.85 237.837 1033.78 237.891 1033.69C237.986 1033.51 237.93 1033.29 237.762 1033.18L154.393 978.165C154.271 978.085 154.118 978.077 153.988 978.151C153.862 978.221 153.786 978.358 153.791 978.503L154.504 998.194C154.51 998.344 154.603 998.477 154.741 998.537L237.394 1033.86C237.475 1033.89 237.563 1033.9 237.643 1033.88ZM154.595 979.23L233.725 1031.45L155.272 997.919L154.595 979.23Z" fill="#E4E4E3"/>
<path d="M237.643 1033.88C237.791 1033.84 237.906 1033.72 237.932 1033.57C237.962 1033.39 237.866 1033.21 237.702 1033.14L155.047 997.82C154.885 997.755 154.702 997.799 154.594 997.932L118.685 1041.89C118.587 1042.01 118.57 1042.18 118.641 1042.32C118.712 1042.46 118.859 1042.54 119.014 1042.53L237.577 1033.89C237.6 1033.89 237.621 1033.88 237.643 1033.88ZM155.009 998.651L235.925 1033.23L119.858 1041.69L155.009 998.651Z" fill="#E4E4E3"/>
<path d="M154.816 1159.92C154.909 1159.9 154.991 1159.84 155.048 1159.76L237.875 1033.72C237.957 1033.59 237.961 1033.43 237.884 1033.3C237.81 1033.18 237.67 1033.1 237.523 1033.11L118.959 1041.75C118.843 1041.76 118.735 1041.82 118.667 1041.92C118.6 1042.02 118.581 1042.14 118.616 1042.25L154.35 1159.66C154.395 1159.8 154.516 1159.91 154.668 1159.93C154.717 1159.94 154.768 1159.94 154.816 1159.92ZM236.793 1033.95L154.853 1158.64L119.501 1042.49L236.793 1033.95Z" fill="#E4E4E3"/>
<path d="M412.356 1089.45C412.473 1089.42 412.574 1089.34 412.622 1089.22C412.689 1089.06 412.634 1088.87 412.491 1088.76L355.632 1046.98C355.541 1046.91 355.423 1046.89 355.312 1046.91L268.312 1067.91L268.309 1067.91C268.129 1067.96 268.008 1068.12 268.016 1068.31C268.025 1068.49 268.164 1068.65 268.347 1068.67L412.207 1089.46C412.257 1089.47 412.309 1089.46 412.356 1089.45ZM355.319 1047.71L410.778 1088.47L270.458 1068.19L355.319 1047.71Z" fill="#E4E4E3"/>
<path d="M327.551 1201.29C327.636 1201.27 327.713 1201.22 327.767 1201.15L412.572 1089.31C412.655 1089.2 412.675 1089.05 412.622 1088.93C412.57 1088.8 412.454 1088.71 412.317 1088.69L268.46 1067.9C268.322 1067.88 268.181 1067.94 268.095 1068.05C268.009 1068.17 267.992 1068.32 268.05 1068.44L327.103 1201.07C327.157 1201.2 327.275 1201.28 327.411 1201.3C327.459 1201.31 327.507 1201.3 327.551 1201.29ZM411.554 1089.37L327.544 1200.15L269.047 1068.77L411.554 1089.37Z" fill="#E4E4E3"/>
<path d="M355.497 1047.67C355.679 1047.62 355.803 1047.46 355.79 1047.27C355.78 1047.08 355.635 1046.93 355.447 1046.91L237.592 1033.12C237.432 1033.1 237.277 1033.18 237.203 1033.32C237.128 1033.46 237.152 1033.64 237.259 1033.76L268.112 1068.55C268.207 1068.66 268.354 1068.7 268.496 1068.67L355.495 1047.67L355.497 1047.67ZM238.516 1034.01L353.194 1047.42L268.54 1067.86L238.516 1034.01Z" fill="#E4E4E3"/>
<path d="M327.551 1201.29C327.629 1201.27 327.703 1201.23 327.755 1201.16C327.852 1201.05 327.872 1200.89 327.812 1200.76L268.759 1068.13C268.711 1068.02 268.612 1067.94 268.497 1067.91C268.379 1067.88 268.255 1067.91 268.16 1067.98L154.478 1159.24C154.362 1159.34 154.309 1159.49 154.341 1159.63C154.373 1159.78 154.486 1159.89 154.63 1159.92L327.366 1201.29C327.429 1201.31 327.492 1201.31 327.551 1201.29ZM268.255 1068.91L326.781 1200.35L155.583 1159.35L268.255 1068.91Z" fill="#E4E4E3"/>
<path d="M154.816 1159.92C154.87 1159.91 154.92 1159.89 154.964 1159.85L268.65 1068.59C268.732 1068.52 268.784 1068.43 268.793 1068.32C268.802 1068.22 268.767 1068.11 268.697 1068.03L237.84 1033.24C237.761 1033.15 237.643 1033.1 237.523 1033.11C237.403 1033.12 237.291 1033.19 237.225 1033.29L154.397 1159.33C154.293 1159.49 154.319 1159.71 154.46 1159.83C154.558 1159.92 154.694 1159.95 154.816 1159.92ZM267.842 1068.24L156.401 1157.7L237.596 1034.14L267.842 1068.24Z" fill="#E4E4E3"/>
<path d="M119.766 794.796C119.887 794.767 119.992 794.678 120.037 794.553C120.111 794.35 120.006 794.128 119.805 794.053L18.2904 757.098C18.0889 757.024 17.8668 757.129 17.7909 757.331C17.7168 757.532 17.8217 757.756 18.0228 757.828L119.537 794.785C119.615 794.812 119.693 794.815 119.766 794.796Z" fill="#E4E4E3"/>
<path d="M38.9213 842.464C38.9568 842.455 38.991 842.441 39.0239 842.421L119.871 794.753C119.999 794.678 120.074 794.533 120.058 794.383C120.045 794.233 119.947 794.105 119.805 794.054L18.2905 757.097C18.1553 757.049 18.0059 757.078 17.8969 757.173C17.7918 757.269 17.7468 757.416 17.7794 757.556L38.4484 842.178C38.4778 842.299 38.563 842.398 38.6744 842.445C38.7535 842.479 38.8401 842.485 38.9213 842.464ZM118.764 794.502L39.0796 841.486L18.7069 758.077L118.764 794.502Z" fill="#E4E4E3"/>
<path d="M38.921 842.464C38.992 842.446 39.0566 842.409 39.1091 842.354C39.1998 842.258 39.2352 842.123 39.204 841.995L18.5362 757.371C18.5037 757.238 18.4041 757.132 18.2745 757.092C18.1427 757.05 18.0027 757.081 17.8984 757.173L-57.5827 824.158C-57.6925 824.257 -57.7374 824.411 -57.6968 824.554C-57.6578 824.698 -57.5383 824.804 -57.3922 824.831L38.7562 842.469C38.8114 842.48 38.8686 842.478 38.921 842.464ZM17.9323 758.182L38.3063 841.596L-56.468 824.211L17.9323 758.182Z" fill="#E4E4E3"/>
<path d="M-57.2293 824.827C-57.1701 824.811 -57.1144 824.782 -57.0639 824.741L18.4134 757.754C18.5585 757.625 18.5876 757.41 18.4807 757.248L-57.7266 642.43C-57.8215 642.287 -58.0091 642.211 -58.1645 642.273C-58.3286 642.322 -58.4409 642.474 -58.4399 642.645L-57.7127 824.452C-57.7114 824.603 -57.6229 824.743 -57.4821 824.805C-57.4008 824.84 -57.3122 824.848 -57.2293 824.827ZM17.6441 757.398L-56.9384 823.587L-57.6584 643.941L17.6441 757.398Z" fill="#E4E4E3"/>
<path d="M502.809 1122.23C504.15 1121.89 505.508 1122.7 505.843 1124.05C506.179 1125.39 505.366 1126.75 504.025 1127.08C502.682 1127.42 501.325 1126.6 500.99 1125.26C500.654 1123.92 501.466 1122.56 502.809 1122.23Z" fill="#E4E4E3"/>
<path d="M502.809 1122.23C501.466 1122.56 500.654 1123.92 500.99 1125.26C501.325 1126.6 502.682 1127.42 504.025 1127.08C505.366 1126.75 506.179 1125.39 505.843 1124.05C505.509 1122.71 504.15 1121.89 502.809 1122.23Z" fill="#E4E4E3"/>
<path d="M502.428 1120.72C504.6 1120.17 506.807 1121.5 507.352 1123.67C507.895 1125.84 506.574 1128.05 504.4 1128.59C502.231 1129.13 500.024 1127.81 499.48 1125.64C498.936 1123.47 500.26 1121.26 502.428 1120.72Z" fill="#E4E4E3"/>
<path d="M464.148 1161.51C466.004 1161.05 467.885 1162.18 468.35 1164.03C468.816 1165.89 467.687 1167.77 465.833 1168.24C463.975 1168.7 462.093 1167.57 461.629 1165.72C461.164 1163.86 462.29 1161.98 464.148 1161.51Z" fill="#E4E4E3"/>
<path d="M464.148 1161.51C462.29 1161.98 461.164 1163.86 461.629 1165.72C462.093 1167.57 463.975 1168.7 465.833 1168.24C467.687 1167.77 468.816 1165.89 468.35 1164.03C467.885 1162.18 466.004 1161.05 464.148 1161.51Z" fill="#E4E4E3"/>
<path d="M463.77 1160.01C466.455 1159.33 469.186 1160.97 469.858 1163.66C470.532 1166.34 468.894 1169.07 466.209 1169.74C463.524 1170.42 460.794 1168.78 460.121 1166.09C459.449 1163.41 461.085 1160.68 463.77 1160.01Z" fill="#E4E4E3"/>
<path d="M90.11 1036.3C92.5663 1035.69 95.057 1037.18 95.6722 1039.63C96.2891 1042.09 94.7945 1044.58 92.3382 1045.2C89.8824 1045.81 87.3917 1044.32 86.776 1041.86C86.1591 1039.41 87.6537 1036.92 90.11 1036.3Z" fill="#E4E4E3"/>
<path d="M90.11 1036.3C87.6537 1036.92 86.1591 1039.41 86.776 1041.86C87.3917 1044.32 89.8807 1045.81 92.3382 1045.2C94.7945 1044.58 96.2891 1042.09 95.6722 1039.63C95.057 1037.18 92.5663 1035.69 90.11 1036.3Z" fill="#E4E4E3"/>
<path d="M89.7322 1034.79C93.0153 1033.97 96.3586 1035.97 97.1812 1039.26C98.0058 1042.54 96.0005 1045.88 92.7171 1046.71C89.4319 1047.53 86.089 1045.53 85.2677 1042.24C84.443 1038.96 86.447 1035.62 89.7322 1034.79Z" fill="#E4E4E3"/>
<path d="M546.682 1078.49C547.9 1078.18 549.136 1078.92 549.442 1080.14C549.749 1081.36 549.008 1082.6 547.788 1082.91C546.567 1083.21 545.331 1082.47 545.025 1081.25C544.718 1080.03 545.459 1078.79 546.682 1078.49Z" fill="#E4E4E3"/>
<path d="M546.682 1078.49C545.459 1078.79 544.718 1080.03 545.025 1081.25C545.331 1082.47 546.567 1083.21 547.788 1082.91C549.008 1082.6 549.749 1081.36 549.442 1080.14C549.136 1078.92 547.9 1078.18 546.682 1078.49Z" fill="#E4E4E3"/>
<path d="M546.303 1076.98C548.353 1076.47 550.436 1077.72 550.95 1079.77C551.465 1081.82 550.215 1083.9 548.166 1084.42C546.113 1084.93 544.029 1083.68 543.515 1081.63C543.002 1079.58 544.25 1077.49 546.303 1076.98Z" fill="#E4E4E3"/>
<path d="M423.856 1040.65C425.83 1040.16 427.828 1041.36 428.323 1043.33C428.815 1045.3 427.618 1047.3 425.645 1047.8C423.673 1048.29 421.673 1047.09 421.179 1045.12C420.685 1043.15 421.883 1041.15 423.856 1040.65Z" fill="#E4E4E3"/>
<path d="M423.856 1040.65C421.883 1041.15 420.685 1043.15 421.179 1045.12C421.673 1047.09 423.673 1048.29 425.645 1047.8C427.618 1047.3 428.816 1045.3 428.323 1043.33C427.828 1041.36 425.83 1040.16 423.856 1040.65Z" fill="#E4E4E3"/>
<path d="M423.479 1039.15C426.279 1038.44 429.13 1040.15 429.832 1042.95C430.533 1045.75 428.824 1048.6 426.024 1049.31C423.223 1050.01 420.372 1048.3 419.671 1045.5C418.971 1042.7 420.677 1039.85 423.479 1039.15Z" fill="#E4E4E3"/>
<path d="M159.513 867.18C160.704 866.881 161.911 867.606 162.209 868.796C162.508 869.988 161.785 871.194 160.594 871.492C159.402 871.791 158.194 871.067 157.897 869.877C157.597 868.685 158.322 867.477 159.513 867.18Z" fill="#E4E4E3"/>
<path d="M159.513 867.18C158.322 867.477 157.597 868.685 157.897 869.877C158.194 871.067 159.402 871.791 160.594 871.492C161.785 871.194 162.508 869.988 162.209 868.796C161.911 867.606 160.704 866.881 159.513 867.18Z" fill="#E4E4E3"/>
<path d="M159.135 865.672C161.155 865.166 163.209 866.397 163.717 868.417C164.223 870.44 162.99 872.494 160.97 873.002C158.948 873.508 156.894 872.277 156.386 870.256C155.88 868.234 157.113 866.18 159.135 865.672Z" fill="#E4E4E3"/>
<path d="M54.3051 985.965C57.0207 985.285 59.7705 986.934 60.4509 989.65C61.1325 992.363 59.4818 995.115 56.7679 995.795C54.0523 996.476 51.3008 994.827 50.6204 992.111C49.9404 989.397 51.5911 986.645 54.3051 985.965Z" fill="#E4E4E3"/>
<path d="M54.3051 985.965C51.5911 986.645 49.9404 989.397 50.6221 992.11C51.3008 994.827 54.0523 996.476 56.7679 995.795C59.4818 995.115 61.1325 992.363 60.4509 989.65C59.7705 986.934 57.0207 985.285 54.3051 985.965Z" fill="#E4E4E3"/>
<path d="M53.9285 984.456C57.4698 983.569 61.0728 985.728 61.9604 989.273C62.8489 992.813 60.6888 996.417 57.1459 997.304C53.6029 998.191 50.0016 996.032 49.1127 992.49C48.2255 988.947 50.3856 985.343 53.9285 984.456Z" fill="#E4E4E3"/>
<path d="M154.797 980.942C153.441 981.282 152.069 980.46 151.729 979.104C151.39 977.749 152.212 976.378 153.566 976.038C154.922 975.699 156.294 976.521 156.634 977.877C156.973 979.231 156.151 980.603 154.797 980.942Z" fill="#E4E4E3"/>
<path d="M153.567 976.038C152.212 976.378 151.39 977.749 151.73 979.104C152.068 980.46 153.441 981.282 154.795 980.942C156.15 980.603 156.973 979.231 156.634 977.875C156.294 976.521 154.923 975.699 153.567 976.038Z" fill="#E4E4E3"/>
<path d="M153.189 974.53C155.374 973.982 157.595 975.314 158.141 977.499C158.688 979.684 157.357 981.904 155.173 982.451C152.988 982.998 150.767 981.667 150.22 979.484C149.672 977.299 151.004 975.077 153.189 974.53Z" fill="#E4E4E3"/>
<path d="M154.201 995.406C155.732 995.023 157.284 995.953 157.667 997.483C158.05 999.014 157.119 1000.57 155.59 1000.95C154.057 1001.33 152.506 1000.4 152.124 998.872C151.74 997.341 152.669 995.79 154.201 995.406Z" fill="#E4E4E3"/>
<path d="M154.201 995.406C152.669 995.79 151.74 997.341 152.124 998.872C152.506 1000.4 154.057 1001.33 155.59 1000.95C157.119 1000.57 158.05 999.014 157.667 997.483C157.284 995.953 155.732 995.023 154.201 995.406Z" fill="#E4E4E3"/>
<path d="M153.821 993.898C156.182 993.306 158.584 994.745 159.173 997.105C159.765 999.467 158.327 1001.87 155.966 1002.46C153.606 1003.05 151.204 1001.61 150.613 999.25C150.024 996.89 151.461 994.489 153.821 993.898Z" fill="#E4E4E3"/>
<path d="M118.444 1039.97C119.642 1039.67 120.857 1040.4 121.157 1041.6C121.458 1042.79 120.73 1044.01 119.531 1044.31C118.333 1044.61 117.118 1043.88 116.818 1042.68C116.517 1041.49 117.245 1040.27 118.444 1039.97Z" fill="#E4E4E3"/>
<path d="M118.444 1039.97C117.245 1040.27 116.517 1041.49 116.818 1042.68C117.118 1043.88 118.333 1044.61 119.531 1044.31C120.73 1044.01 121.458 1042.79 121.157 1041.6C120.857 1040.4 119.642 1039.67 118.444 1039.97Z" fill="#E4E4E3"/>
<path d="M118.066 1038.46C120.093 1037.95 122.156 1039.19 122.663 1041.22C123.173 1043.25 121.937 1045.31 119.908 1045.82C117.879 1046.33 115.816 1045.09 115.308 1043.06C114.799 1041.03 116.037 1038.97 118.066 1038.46Z" fill="#E4E4E3"/>
<path d="M411.084 1084.37C413.681 1083.72 416.314 1085.3 416.963 1087.9C417.613 1090.49 416.037 1093.13 413.44 1093.78C410.843 1094.43 408.21 1092.85 407.559 1090.25C406.909 1087.66 408.487 1085.02 411.084 1084.37Z" fill="#E4E4E3"/>
<path d="M411.084 1084.37C408.487 1085.02 406.909 1087.66 407.559 1090.25C408.21 1092.85 410.843 1094.43 413.44 1093.78C416.037 1093.13 417.613 1090.49 416.963 1087.9C416.314 1085.3 413.681 1083.72 411.084 1084.37Z" fill="#E4E4E3"/>
<path d="M410.706 1082.87C414.13 1082.01 417.615 1084.1 418.473 1087.52C419.331 1090.94 417.242 1094.43 413.818 1095.29C410.394 1096.14 406.909 1094.06 406.053 1090.63C405.193 1087.21 407.282 1083.72 410.706 1082.87Z" fill="#E4E4E3"/>
<path d="M352.695 1047.97C352.322 1046.48 353.23 1044.96 354.725 1044.58C356.221 1044.21 357.738 1045.12 358.111 1046.61C358.484 1048.11 357.576 1049.63 356.081 1050C354.586 1050.37 353.07 1049.47 352.695 1047.97Z" fill="#E4E4E3"/>
<path d="M354.726 1044.58C353.231 1044.96 352.32 1046.47 352.697 1047.97C353.072 1049.47 354.586 1050.37 356.083 1050C357.578 1049.62 358.486 1048.11 358.112 1046.61C357.738 1045.12 356.222 1044.21 354.726 1044.58Z" fill="#E4E4E3"/>
<path d="M354.347 1043.08C356.673 1042.49 359.037 1043.91 359.619 1046.24C360.201 1048.56 358.784 1050.92 356.459 1051.51C354.133 1052.09 351.768 1050.67 351.187 1048.35C350.603 1046.02 352.021 1043.66 354.347 1043.08Z" fill="#E4E4E3"/>
<path d="M267.291 1063.84C269.747 1063.23 272.238 1064.72 272.853 1067.17C273.468 1069.63 271.977 1072.12 269.519 1072.74C267.063 1073.35 264.572 1071.86 263.955 1069.4C263.34 1066.95 264.834 1064.46 267.291 1063.84Z" fill="#E4E4E3"/>
<path d="M267.291 1063.84C264.834 1064.46 263.34 1066.95 263.955 1069.4C264.572 1071.86 267.063 1073.35 269.519 1072.74C271.977 1072.12 273.468 1069.63 272.853 1067.17C272.236 1064.72 269.747 1063.23 267.291 1063.84Z" fill="#E4E4E3"/>
<path d="M266.913 1062.33C270.196 1061.51 273.539 1063.51 274.36 1066.8C275.185 1070.08 273.183 1073.42 269.897 1074.25C266.612 1075.07 263.269 1073.07 262.448 1069.78C261.623 1066.5 263.627 1063.16 266.913 1062.33Z" fill="#E4E4E3"/>
<path d="M153.751 1155.67C155.894 1155.13 158.066 1156.43 158.603 1158.57C159.139 1160.72 157.839 1162.89 155.694 1163.43C153.55 1163.96 151.379 1162.66 150.842 1160.52C150.306 1158.37 151.605 1156.2 153.751 1155.67Z" fill="#E4E4E3"/>
<path d="M153.751 1155.67C151.605 1156.2 150.305 1158.37 150.842 1160.52C151.379 1162.66 153.55 1163.96 155.694 1163.43C157.839 1162.89 159.139 1160.72 158.603 1158.57C158.066 1156.43 155.894 1155.13 153.751 1155.67Z" fill="#E4E4E3"/>
<path d="M153.371 1154.16C156.342 1153.41 159.365 1155.23 160.109 1158.2C160.854 1161.17 159.042 1164.19 156.07 1164.94C153.097 1165.68 150.076 1163.87 149.332 1160.9C148.587 1157.92 150.398 1154.9 153.371 1154.16Z" fill="#E4E4E3"/>
<path d="M236.834 1030.65C238.409 1030.26 240.003 1031.21 240.397 1032.79C240.791 1034.36 239.836 1035.96 238.261 1036.35C236.688 1036.74 235.094 1035.79 234.7 1034.22C234.304 1032.64 235.261 1031.05 236.834 1030.65Z" fill="#E4E4E3"/>
<path d="M236.834 1030.65C235.261 1031.05 234.304 1032.64 234.7 1034.22C235.094 1035.79 236.688 1036.74 238.261 1036.35C239.836 1035.96 240.793 1034.36 240.397 1032.79C240.003 1031.21 238.409 1030.26 236.834 1030.65Z" fill="#E4E4E3"/>
<path d="M236.457 1029.14C238.861 1028.54 241.305 1030.01 241.905 1032.41C242.507 1034.81 241.044 1037.26 238.64 1037.86C236.238 1038.46 233.792 1037 233.192 1034.59C232.59 1032.19 234.053 1029.75 236.457 1029.14Z" fill="#E4E4E3"/>
<path d="M118.819 791.011C120.7 790.54 122.607 791.684 123.08 793.565C123.551 795.447 122.407 797.353 120.526 797.826C118.643 798.298 116.737 797.154 116.265 795.272C115.794 793.391 116.937 791.483 118.819 791.011Z" fill="#E4E4E3"/>
<path d="M118.819 791.011C116.937 791.483 115.794 793.391 116.265 795.272C116.737 797.154 118.643 798.298 120.526 797.824C122.407 797.353 123.551 795.447 123.08 793.565C122.607 791.684 120.7 790.54 118.819 791.011Z" fill="#E4E4E3"/>
<path d="M118.44 789.503C121.151 788.824 123.907 790.477 124.586 793.187C125.265 795.898 123.614 798.654 120.904 799.335C118.191 800.014 115.433 798.361 114.756 795.65C114.075 792.94 115.728 790.182 118.44 789.503Z" fill="#E4E4E3"/>
<path d="M38.1913 839.555C39.5898 839.205 41.0058 840.054 41.356 841.452C41.7058 842.849 40.857 844.265 39.4589 844.617C38.0621 844.967 36.6457 844.116 36.2942 842.72C35.944 841.322 36.7928 839.906 38.1913 839.555Z" fill="#E4E4E3"/>
<path d="M38.1913 839.555C36.7928 839.906 35.944 841.322 36.2942 842.72C36.6457 844.116 38.0621 844.967 39.4589 844.617C40.8553 844.266 41.7058 842.849 41.356 841.452C41.0058 840.054 39.5898 839.205 38.1913 839.555Z" fill="#E4E4E3"/>
<path d="M37.8147 838.046C40.0419 837.487 42.3059 838.846 42.8651 841.073C43.423 843.303 42.0657 845.566 39.8369 846.126C37.6093 846.683 35.344 845.326 34.786 843.097C34.2269 840.87 35.5859 838.606 37.8147 838.046Z" fill="#E4E4E3"/>
<path d="M19.5197 762.909C16.5107 763.663 13.461 761.836 12.7076 758.827C11.9559 755.817 13.7811 752.768 16.7918 752.014C19.8008 751.261 22.8509 753.089 23.6022 756.097C24.3556 759.106 22.5286 762.156 19.5197 762.909Z" fill="#E4E4E3"/>
<path d="M16.7919 752.016C13.7829 752.769 11.956 755.819 12.7093 758.828C13.4623 761.835 16.5124 763.664 19.5197 762.911C22.5304 762.157 24.3556 759.108 23.6039 756.098C22.8506 753.089 19.8008 751.262 16.7919 752.016Z" fill="#E4E4E3"/>
<path d="M16.4136 750.507C20.2496 749.546 24.1501 751.884 25.1117 755.721C26.0729 759.558 23.7353 763.458 19.8993 764.419C16.0615 765.381 12.1605 763.042 11.2011 759.205C10.2399 755.369 12.5775 751.468 16.4136 750.507Z" fill="#E4E4E3"/>
<path d="M547.62 1081.37L504.075 1124.82L503.49 1124.23L547.035 1080.78L547.62 1081.37Z" fill="#E4E4E3"/>
<path d="M35.5816 844.632C34.117 842.69 34.4428 839.975 36.3072 838.567C38.1738 837.162 40.8731 837.595 42.3391 839.536C43.8036 841.479 43.4779 844.193 41.611 845.601C39.7469 847.006 37.0476 846.573 35.5816 844.632Z" fill="#009A9A"/>
<path d="M406.232 1093.77C403.958 1090.75 404.723 1086.34 407.942 1083.91C411.16 1081.48 415.616 1081.96 417.89 1084.98C420.164 1088 419.399 1092.41 416.18 1094.84C412.96 1097.27 408.505 1096.79 406.232 1093.77Z" fill="#FFB100"/>
<path d="M544.299 1083.1C542.893 1081.24 543.265 1078.58 545.129 1077.18C546.997 1075.77 549.649 1076.14 551.057 1078.01C552.463 1079.87 552.091 1082.53 550.226 1083.93C548.359 1085.34 545.707 1084.97 544.299 1083.1Z" fill="#009A9A"/>
<path d="M233.387 1037.16C231.532 1034.71 231.951 1031.26 234.32 1029.48C236.687 1027.69 240.109 1028.24 241.963 1030.7C243.817 1033.15 243.398 1036.59 241.029 1038.38C238.663 1040.16 235.24 1039.62 233.387 1037.16Z" fill="#FFB100"/>
<path d="M351.845 1049.98C350.36 1048.01 350.752 1045.21 352.721 1043.72C354.693 1042.24 357.493 1042.63 358.978 1044.6C360.462 1046.57 360.071 1049.37 358.102 1050.86C356.131 1052.34 353.329 1051.95 351.845 1049.98Z" fill="#009A9A"/>
<path d="M156 976.825L153.962 976.71L159.326 872.311L161.365 872.426L156 976.825Z" fill="url(#paint0_linear_3762_131003)"/>
<path d="M156.31 981.036L157.441 979.344L233.964 1029.77L232.833 1031.46L156.31 981.036Z" fill="url(#paint1_linear_3762_131003)"/>
<path d="M357.296 1050.51L358.511 1048.88L409.196 1085.99L407.981 1087.62L357.296 1050.51Z" fill="url(#paint2_linear_3762_131003)"/>
<path d="M353.144 1045.65L352.905 1047.67L241.67 1035.07L241.909 1033.05L353.144 1045.65Z" fill="url(#paint3_linear_3762_131003)"/>
<path d="M545.279 1080.19L545.396 1082.25L417.734 1090.06L417.622 1088.08L545.279 1080.19Z" fill="url(#paint4_linear_3762_131003)"/>
<path d="M35.6914 840.658L35.3176 842.633L-53.7203 826.339L-53.3465 824.364L35.6914 840.658Z" fill="url(#paint5_linear_3762_131003)"/>
<path d="M42.5723 844.323L43.0095 842.308L158.286 866.757L157.866 868.694L42.5723 844.323Z" fill="url(#paint6_linear_3762_131003)"/>
<path d="M157.118 871.584C155.841 869.891 156.179 867.486 157.872 866.21C159.564 864.933 161.97 865.271 163.246 866.963C164.522 868.655 164.184 871.06 162.492 872.336C160.8 873.614 158.394 873.275 157.118 871.584Z" fill="#FFB100"/>
<path d="M150.837 980.752C149.4 978.848 149.75 976.165 151.617 974.758C153.482 973.349 156.158 973.752 157.594 975.657C159.029 977.56 158.68 980.244 156.813 981.651C154.949 983.059 152.273 982.657 150.837 980.752Z" fill="#009A9A"/>
</g>
<path d="M1526.61 846.442L1464.18 916.574L1435.53 875.145L1435.09 875.328L1463.97 917.071C1464.01 917.128 1464.07 917.164 1464.14 917.167C1464.21 917.172 1464.28 917.144 1464.32 917.093L1527.63 846.011L1526.61 846.442Z" fill="#E4E4E3"/>
<path d="M1318.24 959.197L1368.72 917.217L1367.36 917.796L1318.05 958.751L1318.24 959.197Z" fill="#E4E4E3"/>
<path d="M1384.07 1164.46L1454.93 1137.84L1425.6 1178.93L1383.87 1163.98L1384.09 1164.52L1425.64 1179.41C1425.73 1179.43 1425.83 1179.4 1425.89 1179.32L1455.73 1137.51C1455.79 1137.43 1455.79 1137.32 1455.72 1137.24C1455.66 1137.16 1455.56 1137.13 1455.46 1137.16L1383.89 1164.04L1384.07 1164.46Z" fill="#E4E4E3"/>
<path d="M1318.24 959.197L1368.72 917.217L1367.36 917.796L1318.05 958.751L1318.24 959.197Z" fill="#E4E4E3"/>
<path d="M1318.33 959.408L1373.23 951.74C1373.36 951.716 1373.44 951.602 1373.42 951.477L1368.04 917.507L1367.6 917.692L1372.93 951.323L1318.14 958.972L1318.33 959.408Z" fill="#E4E4E3"/>
<path d="M1366.09 1065.12L1381.84 1031.43L1403.28 1028.3L1365.9 1064.66L1366.09 1065.12L1404.11 1028.14C1404.18 1028.07 1404.2 1027.96 1404.16 1027.87C1404.11 1027.78 1404.01 1027.73 1403.92 1027.75L1381.68 1030.99C1381.66 1030.99 1381.64 1030.99 1381.62 1031C1381.58 1031.02 1381.55 1031.04 1381.53 1031.08L1365.88 1064.63L1366.09 1065.12Z" fill="#E4E4E3"/>
<path d="M1435.1 875.327L1463.73 916.735L1434.08 918.66L1435.33 875.227L1434.86 875.428L1433.61 918.891C1433.6 918.958 1433.63 919.021 1433.67 919.068C1433.72 919.116 1433.78 919.14 1433.85 919.135L1464.17 917.167C1464.26 917.162 1464.33 917.111 1464.37 917.036C1464.4 916.961 1464.39 916.872 1464.34 916.804L1435.53 875.144L1435.1 875.327Z" fill="#E4E4E3"/>
<path d="M1434.86 875.428L1433.64 918.488L1416.84 901.486L1416.34 901.699L1433.71 919.096C1433.78 919.142 1433.87 919.157 1433.94 919.113C1434.02 919.077 1434.06 919.004 1434.07 918.921L1435.34 875.227L1434.86 875.428Z" fill="#E4E4E3"/>
<path d="M1416.84 901.485L1416.33 901.698L1433.06 918.651L1368.83 917.172L1367.82 917.599L1433.83 919.135C1433.93 919.14 1434.02 919.074 1434.05 918.977C1434.09 918.88 1434.05 918.775 1433.97 918.716L1416.84 901.485Z" fill="#E4E4E3"/>
<path d="M1433.84 918.676L1368.83 917.172L1367.82 917.599L1432.98 919.107L1373.38 951.157L1368.04 917.507L1367.61 917.692L1372.97 951.548C1372.99 951.622 1373.03 951.686 1373.1 951.718C1373.17 951.751 1373.25 951.747 1373.31 951.715L1433.95 919.109C1434.04 919.059 1434.08 918.954 1434.06 918.854C1434.04 918.752 1433.95 918.68 1433.84 918.676Z" fill="#E4E4E3"/>
<path d="M1366.09 1065.11L1404.02 1028.23L1440.11 1037.44L1349.31 1095.29L1349.49 1095.71L1440.84 1037.56C1440.92 1037.51 1440.96 1037.42 1440.95 1037.33C1440.94 1037.24 1440.87 1037.16 1440.78 1037.14L1404.01 1027.75C1403.96 1027.74 1403.9 1027.74 1403.86 1027.76C1403.83 1027.77 1403.81 1027.79 1403.79 1027.81L1365.9 1064.66L1366.09 1065.11Z" fill="#E4E4E3"/>
<path d="M1420.58 1219.97L1468.1 1166.82L1525.6 1300.27L1420.33 1219.39L1420.62 1220.08L1525.97 1301C1526.05 1301.05 1526.16 1301.04 1526.24 1300.97C1526.31 1300.91 1526.33 1300.8 1526.29 1300.71L1468.37 1166.3C1468.34 1166.23 1468.27 1166.18 1468.2 1166.16C1468.15 1166.16 1468.11 1166.16 1468.07 1166.18C1468.04 1166.19 1468.01 1166.21 1467.99 1166.24L1420.37 1219.5L1420.58 1219.97Z" fill="#E4E4E3"/>
<path d="M1455.46 1137.17C1455.49 1137.15 1455.53 1137.14 1455.57 1137.15C1455.65 1137.16 1455.72 1137.21 1455.76 1137.28L1468.37 1166.3C1468.4 1166.36 1468.4 1166.43 1468.37 1166.49C1468.34 1166.55 1468.29 1166.59 1468.23 1166.61L1425.77 1179.41C1425.67 1179.44 1425.57 1179.4 1425.51 1179.32C1425.46 1179.24 1425.46 1179.13 1425.51 1179.05L1455.36 1137.24C1455.38 1137.21 1455.42 1137.18 1455.46 1137.17ZM1467.85 1166.25L1455.5 1137.84L1426.28 1178.77L1467.85 1166.25Z" fill="#E4E4E3"/>
<path d="M1420.48 1219.73L1425.89 1179.37L1467.47 1166.84L1420.38 1219.5L1420.58 1219.97L1468.34 1166.54C1468.41 1166.46 1468.41 1166.35 1468.36 1166.27C1468.3 1166.18 1468.2 1166.14 1468.1 1166.17L1425.64 1178.97C1425.63 1178.97 1425.62 1178.97 1425.61 1178.98C1425.55 1179 1425.5 1179.06 1425.48 1179.12L1420.2 1219.07L1420.48 1219.73Z" fill="#E4E4E3"/>
<path d="M1384.09 1164.52L1423.43 1178.83L1387.82 1184.93L1388.02 1185.4L1425.69 1179.42C1425.8 1179.42 1425.91 1179.34 1425.93 1179.22C1425.94 1179.11 1425.87 1179 1425.76 1178.97L1383.87 1163.98L1384.09 1164.52Z" fill="#E4E4E3"/>
<path d="M1433.75 918.696C1433.77 918.686 1433.8 918.68 1433.82 918.677L1464.15 916.709C1464.22 916.705 1464.29 916.737 1464.34 916.797C1464.39 916.856 1464.4 916.935 1464.38 917.007L1444.9 978.651C1444.87 978.752 1444.78 978.816 1444.67 978.811C1444.57 978.804 1444.48 978.726 1444.46 978.623L1433.61 918.948C1433.6 918.884 1433.62 918.817 1433.66 918.766C1433.68 918.735 1433.71 918.71 1433.75 918.696ZM1463.84 917.189L1434.11 919.119L1444.75 977.629L1463.84 917.189Z" fill="#E4E4E3"/>
<path d="M1433.75 918.696C1433.81 918.67 1433.88 918.671 1433.94 918.7C1434 918.732 1434.05 918.794 1434.06 918.866L1444.91 978.541C1444.93 978.622 1444.9 978.706 1444.83 978.758C1444.77 978.81 1444.68 978.826 1444.6 978.797L1373.12 951.729C1373.04 951.696 1372.98 951.619 1372.97 951.529C1372.97 951.439 1373.01 951.354 1373.09 951.311L1433.73 918.704C1433.73 918.702 1433.74 918.698 1433.75 918.696ZM1444.39 978.222L1433.67 919.259L1373.75 951.478L1444.39 978.222Z" fill="#E4E4E3"/>
<path d="M1444.6 978.369C1444.66 978.346 1444.72 978.344 1444.78 978.368C1444.87 978.405 1444.93 978.497 1444.92 978.596L1440.96 1037.38C1440.95 1037.44 1440.92 1037.51 1440.86 1037.55C1440.81 1037.59 1440.74 1037.6 1440.67 1037.58L1403.9 1028.19C1403.82 1028.18 1403.76 1028.12 1403.74 1028.04C1403.71 1027.97 1403.73 1027.89 1403.78 1027.83L1444.51 978.435C1444.54 978.406 1444.57 978.383 1444.6 978.369ZM1440.52 1037.07L1444.41 979.277L1404.36 1027.84L1440.52 1037.07Z" fill="#E4E4E3"/>
<path d="M1373.12 951.302C1373.17 951.279 1373.23 951.278 1373.29 951.298L1444.77 978.367C1444.85 978.396 1444.9 978.463 1444.92 978.543C1444.93 978.623 1444.9 978.706 1444.84 978.758L1381.86 1031.39C1381.8 1031.44 1381.71 1031.46 1381.63 1031.43C1381.55 1031.4 1381.5 1031.32 1381.49 1031.24L1372.98 951.537C1372.97 951.459 1373 951.381 1373.07 951.332C1373.08 951.32 1373.1 951.309 1373.12 951.302ZM1444.24 978.657L1373.47 951.86L1381.9 1030.76L1444.24 978.657Z" fill="#E4E4E3"/>
<path d="M1444.6 978.369C1444.69 978.334 1444.78 978.35 1444.85 978.418C1444.94 978.502 1444.94 978.635 1444.87 978.726L1404.13 1028.12C1404.1 1028.16 1404.05 1028.19 1403.99 1028.2L1381.75 1031.44C1381.65 1031.45 1381.55 1031.4 1381.51 1031.31C1381.46 1031.21 1381.49 1031.1 1381.57 1031.04L1444.54 978.405C1444.56 978.39 1444.58 978.378 1444.6 978.369ZM1403.84 1027.76L1442.94 980.345L1382.49 1030.87L1403.84 1027.76Z" fill="#E4E4E3"/>
<path d="M1397.08 1137.96L1440.59 1037.97L1455.28 1137.15L1396.76 1137.51L1396.95 1137.96L1455.55 1137.61C1455.61 1137.61 1455.68 1137.58 1455.72 1137.53C1455.76 1137.48 1455.78 1137.41 1455.77 1137.34L1440.95 1037.33C1440.94 1037.23 1440.87 1037.16 1440.78 1037.14C1440.73 1037.13 1440.68 1037.13 1440.64 1037.15C1440.6 1037.17 1440.56 1037.19 1440.54 1037.23L1396.87 1137.46L1397.08 1137.96Z" fill="#E4E4E3"/>
<path d="M1349.49 1095.72L1439.98 1038.05L1396.87 1137.46L1397.09 1137.96L1440.92 1037.49C1440.98 1037.4 1440.97 1037.29 1440.9 1037.21C1440.83 1037.13 1440.73 1037.11 1440.64 1037.15C1440.63 1037.15 1440.62 1037.16 1440.62 1037.16L1349.31 1095.29L1349.49 1095.72Z" fill="#E4E4E3"/>
<path d="M1396.95 1137.96L1454.21 1137.61L1383.89 1164.04L1384.07 1164.46L1455.62 1137.59C1455.74 1137.55 1455.79 1137.45 1455.77 1137.34C1455.75 1137.23 1455.65 1137.15 1455.54 1137.15L1396.75 1137.51L1396.95 1137.96Z" fill="#E4E4E3"/>
<path d="M1350.1 1033.36L1381.23 1031.47L1365.88 1064.63L1366.08 1065.11L1381.89 1031.35C1381.94 1031.28 1381.95 1031.18 1381.91 1031.1C1381.87 1031.03 1381.78 1030.98 1381.69 1030.98L1349.91 1032.91L1350.1 1033.36Z" fill="#E4E4E3"/>
<path d="M1338.7 1006.82L1373.04 952.186L1381.43 1030.8L1338.56 1006.47L1338.85 1007.16L1381.6 1031.41C1381.67 1031.46 1381.76 1031.45 1381.84 1031.4C1381.91 1031.36 1381.95 1031.27 1381.94 1031.19L1373.43 951.489C1373.42 951.393 1373.35 951.313 1373.25 951.29C1373.21 951.279 1373.16 951.284 1373.11 951.302C1373.07 951.32 1373.03 951.349 1373.01 951.389L1338.48 1006.3L1338.7 1006.82Z" fill="#E4E4E3"/>
<path d="M1318.33 959.408L1372.72 951.823L1338.48 1006.3L1338.7 1006.82L1373.39 951.637C1373.44 951.56 1373.44 951.463 1373.39 951.387C1373.34 951.312 1373.25 951.271 1373.16 951.286L1318.14 958.972L1318.33 959.408Z" fill="#E4E4E3"/>
<path d="M1338.84 1007.16L1380.89 1031.02L1349.91 1032.91L1350.1 1033.36L1381.72 1031.44C1381.82 1031.44 1381.91 1031.37 1381.93 1031.27C1381.95 1031.17 1381.91 1031.06 1381.82 1031.01L1338.55 1006.47L1338.84 1007.16Z" fill="#E4E4E3"/>
<path d="M1435.02 921.684C1436.55 921.034 1437.27 919.265 1436.62 917.729C1435.97 916.195 1434.2 915.478 1432.66 916.128C1431.13 916.779 1430.41 918.548 1431.06 920.082C1431.71 921.617 1433.48 922.333 1435.02 921.684Z" fill="#E4E4E3"/>
<path d="M1435.02 921.684C1433.48 922.333 1431.71 921.617 1431.06 920.082C1430.41 918.548 1431.13 916.778 1432.66 916.128C1434.2 915.478 1435.97 916.195 1436.62 917.729C1437.27 919.265 1436.55 921.034 1435.02 921.684Z" fill="#E4E4E3"/>
<path d="M1435.37 922.53C1437.37 921.684 1438.31 919.37 1437.46 917.372C1436.61 915.374 1434.3 914.437 1432.3 915.284C1430.3 916.129 1429.37 918.443 1430.21 920.442C1431.06 922.44 1433.37 923.377 1435.37 922.53Z" fill="#E4E4E3"/>
<path d="M1405.22 1030.98C1406.89 1030.28 1407.66 1028.36 1406.96 1026.7C1406.26 1025.04 1404.34 1024.26 1402.68 1024.96C1401.01 1025.67 1400.24 1027.58 1400.94 1029.25C1401.64 1030.91 1403.56 1031.69 1405.22 1030.98Z" fill="#E4E4E3"/>
<path d="M1405.22 1030.98C1403.56 1031.69 1401.64 1030.91 1400.94 1029.25C1400.24 1027.58 1401.01 1025.67 1402.68 1024.96C1404.34 1024.26 1406.26 1025.04 1406.96 1026.7C1407.66 1028.36 1406.89 1030.28 1405.22 1030.98Z" fill="#E4E4E3"/>
<path d="M1405.58 1031.83C1407.71 1030.93 1408.7 1028.46 1407.8 1026.34C1406.9 1024.21 1404.44 1023.22 1402.31 1024.12C1400.19 1025.02 1399.19 1027.48 1400.09 1029.61C1400.99 1031.73 1403.45 1032.73 1405.58 1031.83Z" fill="#E4E4E3"/>
<path d="M1441.61 1039.47C1442.78 1038.98 1443.33 1037.63 1442.83 1036.46C1442.34 1035.3 1440.99 1034.75 1439.82 1035.25C1438.66 1035.74 1438.11 1037.09 1438.6 1038.26C1439.1 1039.42 1440.45 1039.97 1441.61 1039.47Z" fill="#E4E4E3"/>
<path d="M1441.61 1039.47C1440.45 1039.97 1439.1 1039.42 1438.6 1038.26C1438.11 1037.09 1438.66 1035.74 1439.82 1035.25C1440.99 1034.75 1442.34 1035.3 1442.83 1036.46C1443.33 1037.63 1442.78 1038.98 1441.61 1039.47Z" fill="#E4E4E3"/>
<path d="M1441.98 1040.32C1443.61 1039.63 1444.38 1037.74 1443.69 1036.11C1442.99 1034.48 1441.1 1033.71 1439.47 1034.4C1437.84 1035.09 1437.07 1036.98 1437.77 1038.62C1438.46 1040.25 1440.35 1041.01 1441.98 1040.32Z" fill="#E4E4E3"/>
<path d="M1373.89 953.133C1374.78 952.754 1375.2 951.721 1374.82 950.828C1374.44 949.934 1373.41 949.516 1372.52 949.895C1371.62 950.273 1371.2 951.306 1371.58 952.199C1371.96 953.093 1373 953.512 1373.89 953.133Z" fill="#E4E4E3"/>
<path d="M1373.89 953.133C1373 953.512 1371.96 953.093 1371.58 952.199C1371.2 951.306 1371.62 950.273 1372.52 949.895C1373.41 949.516 1374.44 949.934 1374.82 950.828C1375.2 951.721 1374.78 952.754 1373.89 953.133Z" fill="#E4E4E3"/>
<path d="M1374.24 953.978C1375.6 953.403 1376.24 951.827 1375.66 950.469C1375.09 949.111 1373.51 948.474 1372.15 949.05C1370.8 949.624 1370.16 951.2 1370.73 952.558C1371.31 953.916 1372.88 954.554 1374.24 953.978Z" fill="#E4E4E3"/>
<path d="M1382.56 1033.23C1383.67 1032.76 1384.19 1031.47 1383.72 1030.36C1383.25 1029.25 1381.97 1028.73 1380.85 1029.2C1379.74 1029.67 1379.22 1030.95 1379.69 1032.07C1380.16 1033.18 1381.45 1033.7 1382.56 1033.23Z" fill="#E4E4E3"/>
<path d="M1382.56 1033.23C1381.45 1033.7 1380.16 1033.18 1379.69 1032.07C1379.22 1030.95 1379.74 1029.67 1380.85 1029.2C1381.97 1028.73 1383.25 1029.25 1383.72 1030.36C1384.19 1031.47 1383.67 1032.76 1382.56 1033.23Z" fill="#E4E4E3"/>
<path d="M1382.93 1034.07C1384.5 1033.41 1385.24 1031.58 1384.58 1030C1383.91 1028.42 1382.08 1027.68 1380.5 1028.35C1378.93 1029.02 1378.19 1030.85 1378.85 1032.43C1379.52 1034 1381.35 1034.74 1382.93 1034.07Z" fill="#E4E4E3"/>
<path d="M1435.04 875.088L1435.16 875.564L1466.76 865.85L1466.76 865.34L1435.04 875.088Z" fill="#E4E4E3"/>
<path d="M1433.9 875.807L1434.61 875.811L1416.99 899.274L1416.27 899.27L1433.9 875.807Z" fill="#E4E4E3"/>
<path d="M1413.95 900.702L1367.23 917.43L1367.02 916.842L1413.74 900.115L1413.95 900.702Z" fill="#E4E4E3"/>
<path d="M1338.93 1006.72L1338.44 1006.93L1318.02 959.292L1318.51 959.08L1338.93 1006.72Z" fill="#E4E4E3"/>
<path d="M1396.81 1138.54L1397.55 1138.25L1384.64 1161.7L1383.9 1161.99L1396.81 1138.54Z" fill="#E4E4E3"/>
<path d="M1396.64 1137.71L1349.55 1096.1L1350.01 1095.58L1397.1 1137.2L1396.64 1137.71Z" fill="#E4E4E3"/>
<path d="M1383.62 1163.1L1384.11 1163.18L1387.81 1183.77L1387.32 1183.69L1383.62 1163.1Z" fill="#E4E4E3"/>
<path d="M1383.71 1164.05L1350.04 1095.76L1350.45 1095.56L1384.12 1163.85L1383.71 1164.05Z" fill="#E4E4E3"/>
<path d="M1364.06 1068.63L1364.79 1068.78L1352.18 1093.92L1351.45 1093.77L1364.06 1068.63Z" fill="#E4E4E3"/>
<path d="M1364.46 1064.77L1349.65 1033.03L1350.09 1032.83L1364.9 1064.56L1364.46 1064.77Z" fill="#E4E4E3"/>
<path d="M1349.46 1033.1L1338.39 1007.35L1338.84 1007.16L1349.91 1032.91L1349.46 1033.1Z" fill="#E4E4E3"/>
<path d="M1367.2 1068.76C1368.75 1068.11 1369.47 1066.32 1368.82 1064.77C1368.16 1063.23 1366.37 1062.5 1364.83 1063.16C1363.28 1063.81 1362.56 1065.6 1363.22 1067.15C1363.87 1068.69 1365.66 1069.42 1367.2 1068.76Z" fill="#E4E4E3"/>
<path d="M1367.2 1068.76C1365.66 1069.42 1363.87 1068.69 1363.22 1067.15C1362.56 1065.6 1363.28 1063.82 1364.83 1063.16C1366.37 1062.5 1368.16 1063.23 1368.82 1064.77C1369.47 1066.32 1368.75 1068.11 1367.2 1068.76Z" fill="#E4E4E3"/>
<path d="M1367.56 1069.61C1369.57 1068.76 1370.51 1066.43 1369.66 1064.42C1368.81 1062.41 1366.48 1061.46 1364.47 1062.31C1362.46 1063.17 1361.51 1065.49 1362.37 1067.51C1363.22 1069.52 1365.55 1070.46 1367.56 1069.61Z" fill="#E4E4E3"/>
<path d="M1382.91 1163.85C1383.19 1164.52 1383.95 1164.82 1384.61 1164.54C1385.28 1164.26 1385.59 1163.5 1385.3 1162.84C1385.03 1162.17 1384.26 1161.86 1383.6 1162.14C1382.94 1162.42 1382.63 1163.19 1382.91 1163.85Z" fill="#E4E4E3"/>
<path d="M1384.62 1164.54C1383.96 1164.82 1383.2 1164.51 1382.92 1163.85C1382.63 1163.19 1382.95 1162.42 1383.61 1162.14C1384.27 1161.86 1385.04 1162.17 1385.32 1162.84C1385.6 1163.5 1385.29 1164.26 1384.62 1164.54Z" fill="#E4E4E3"/>
<path d="M1384.98 1165.39C1386.11 1164.91 1386.63 1163.6 1386.16 1162.48C1385.68 1161.35 1384.37 1160.82 1383.25 1161.3C1382.12 1161.78 1381.59 1163.08 1382.07 1164.21C1382.54 1165.34 1383.85 1165.87 1384.98 1165.39Z" fill="#E4E4E3"/>
<path d="M1396.72 1137.51C1397 1138.17 1397.77 1138.48 1398.43 1138.2C1399.09 1137.92 1399.4 1137.16 1399.12 1136.5C1398.84 1135.84 1398.08 1135.53 1397.41 1135.81C1396.75 1136.09 1396.44 1136.85 1396.72 1137.51Z" fill="#E4E4E3"/>
<path d="M1398.43 1138.2C1397.77 1138.48 1397 1138.17 1396.72 1137.51C1396.44 1136.85 1396.75 1136.09 1397.41 1135.81C1398.07 1135.53 1398.84 1135.83 1399.12 1136.5C1399.4 1137.16 1399.09 1137.92 1398.43 1138.2Z" fill="#E4E4E3"/>
<path d="M1398.78 1139.05C1399.91 1138.57 1400.44 1137.27 1399.96 1136.14C1399.48 1135.01 1398.18 1134.48 1397.05 1134.96C1395.92 1135.44 1395.39 1136.74 1395.87 1137.87C1396.35 1139 1397.65 1139.53 1398.78 1139.05Z" fill="#E4E4E3"/>
<path d="M1319.5 962.169C1321.03 961.52 1321.75 959.749 1321.1 958.215C1320.45 956.68 1318.68 955.964 1317.14 956.613C1315.61 957.263 1314.89 959.032 1315.54 960.568C1316.19 962.101 1317.96 962.819 1319.5 962.169Z" fill="#E4E4E3"/>
<path d="M1319.5 962.169C1317.96 962.819 1316.19 962.101 1315.54 960.568C1314.89 959.032 1315.61 957.263 1317.14 956.613C1318.68 955.964 1320.45 956.68 1321.1 958.215C1321.75 959.749 1321.03 961.518 1319.5 962.169Z" fill="#E4E4E3"/>
<path d="M1319.86 963.016C1321.86 962.17 1322.8 959.856 1321.95 957.857C1321.11 955.859 1318.79 954.922 1316.8 955.769C1314.8 956.615 1313.86 958.929 1314.71 960.928C1315.55 962.925 1317.87 963.862 1319.86 963.016Z" fill="#E4E4E3"/>
<path d="M1369.01 920.378C1370.54 919.728 1371.26 917.958 1370.61 916.423C1369.96 914.89 1368.19 914.172 1366.65 914.821C1365.12 915.473 1364.4 917.242 1365.05 918.776C1365.7 920.311 1367.47 921.026 1369.01 920.378Z" fill="#E4E4E3"/>
<path d="M1369.01 920.378C1367.47 921.026 1365.7 920.311 1365.05 918.776C1364.4 917.242 1365.12 915.473 1366.65 914.821C1368.19 914.172 1369.96 914.89 1370.61 916.423C1371.26 917.958 1370.54 919.727 1369.01 920.378Z" fill="#E4E4E3"/>
<path d="M1369.36 921.224C1371.36 920.378 1372.3 918.064 1371.45 916.065C1370.6 914.067 1368.29 913.13 1366.29 913.978C1364.29 914.823 1363.36 917.137 1364.2 919.136C1365.05 921.134 1367.36 922.071 1369.36 921.224Z" fill="#E4E4E3"/>
<path d="M1351.11 1098.55C1352.46 1097.98 1353.09 1096.43 1352.52 1095.09C1351.95 1093.74 1350.4 1093.12 1349.06 1093.68C1347.71 1094.25 1347.09 1095.8 1347.65 1097.14C1348.22 1098.49 1349.77 1099.11 1351.11 1098.55Z" fill="#E4E4E3"/>
<path d="M1351.11 1098.55C1349.77 1099.11 1348.22 1098.49 1347.65 1097.14C1347.09 1095.8 1347.71 1094.25 1349.06 1093.68C1350.4 1093.12 1351.95 1093.74 1352.52 1095.09C1353.09 1096.43 1352.46 1097.98 1351.11 1098.55Z" fill="#E4E4E3"/>
<path d="M1351.48 1099.39C1353.29 1098.63 1354.13 1096.53 1353.37 1094.73C1352.6 1092.92 1350.51 1092.07 1348.7 1092.84C1346.9 1093.6 1346.05 1095.7 1346.82 1097.5C1347.58 1099.31 1349.67 1100.16 1351.48 1099.39Z" fill="#E4E4E3"/>
<path d="M1416.23 901.484C1417.11 901.111 1417.52 900.092 1417.15 899.212C1416.78 898.33 1415.76 897.917 1414.88 898.292C1414 898.665 1413.58 899.683 1413.96 900.564C1414.33 901.445 1415.35 901.858 1416.23 901.484Z" fill="#E4E4E3"/>
<path d="M1416.23 901.484C1415.35 901.858 1414.33 901.445 1413.96 900.564C1413.58 899.683 1414 898.665 1414.88 898.292C1415.76 897.917 1416.78 898.33 1417.15 899.212C1417.52 900.092 1417.11 901.11 1416.23 901.484Z" fill="#E4E4E3"/>
<path d="M1416.6 902.33C1417.94 901.76 1418.57 900.2 1418 898.853C1417.43 897.507 1415.87 896.875 1414.53 897.446C1413.18 898.016 1412.55 899.576 1413.12 900.923C1413.69 902.269 1415.25 902.9 1416.6 902.33Z" fill="#E4E4E3"/>
<path d="M1339.56 1008.83C1340.67 1008.36 1341.19 1007.07 1340.72 1005.96C1340.25 1004.85 1338.96 1004.33 1337.85 1004.8C1336.74 1005.27 1336.22 1006.56 1336.69 1007.67C1337.16 1008.78 1338.45 1009.3 1339.56 1008.83Z" fill="#E4E4E3"/>
<path d="M1339.56 1008.83C1338.45 1009.3 1337.16 1008.78 1336.69 1007.67C1336.22 1006.56 1336.74 1005.27 1337.85 1004.8C1338.96 1004.33 1340.25 1004.85 1340.72 1005.96C1341.19 1007.07 1340.67 1008.36 1339.56 1008.83Z" fill="#E4E4E3"/>
<path d="M1339.91 1009.68C1341.49 1009.01 1342.23 1007.18 1341.56 1005.6C1340.89 1004.03 1339.07 1003.29 1337.49 1003.96C1335.91 1004.62 1335.17 1006.45 1335.84 1008.03C1336.51 1009.61 1338.34 1010.34 1339.91 1009.68Z" fill="#E4E4E3"/>
<path d="M1436.01 877.469C1437.19 876.968 1437.74 875.603 1437.24 874.42C1436.74 873.237 1435.38 872.683 1434.19 873.185C1433.01 873.686 1432.46 875.052 1432.96 876.235C1433.46 877.417 1434.83 877.97 1436.01 877.469Z" fill="#E4E4E3"/>
<path d="M1436.01 877.469C1434.82 877.971 1433.46 877.417 1432.96 876.235C1432.46 875.052 1433.01 873.686 1434.19 873.185C1435.38 872.683 1436.74 873.237 1437.24 874.42C1437.74 875.603 1437.19 876.968 1436.01 877.469Z" fill="#E4E4E3"/>
<path d="M1436.36 878.316C1438.01 877.618 1438.78 875.71 1438.08 874.063C1437.39 872.415 1435.48 871.642 1433.83 872.34C1432.18 873.037 1431.41 874.945 1432.11 876.593C1432.81 878.242 1434.71 879.014 1436.36 878.316Z" fill="#E4E4E3"/>
<path d="M1350.64 1035.9C1352.19 1035.24 1352.91 1033.46 1352.26 1031.91C1351.6 1030.37 1349.82 1029.64 1348.27 1030.3C1346.72 1030.95 1346 1032.74 1346.66 1034.29C1347.31 1035.83 1349.1 1036.56 1350.64 1035.9Z" fill="#E4E4E3"/>
<path d="M1350.64 1035.9C1349.1 1036.56 1347.31 1035.83 1346.66 1034.29C1346 1032.74 1346.72 1030.95 1348.27 1030.3C1349.82 1029.64 1351.6 1030.37 1352.26 1031.91C1352.91 1033.46 1352.19 1035.24 1350.64 1035.9Z" fill="#E4E4E3"/>
<path d="M1351.01 1036.74C1353.02 1035.89 1353.96 1033.56 1353.11 1031.55C1352.26 1029.54 1349.93 1028.6 1347.92 1029.45C1345.91 1030.3 1344.96 1032.63 1345.82 1034.64C1346.67 1036.65 1349 1037.6 1351.01 1036.74Z" fill="#E4E4E3"/>
</g>
<defs>
<linearGradient id="paint0_linear_3762_131003" x1="153.988" y1="976.738" x2="157.955" y2="906.455" gradientUnits="userSpaceOnUse">
<stop stop-color="#009A9A"/>
<stop offset="1" stop-color="#FFB100"/>
</linearGradient>
<linearGradient id="paint1_linear_3762_131003" x1="157.46" y1="979.332" x2="208.749" y2="1013.58" gradientUnits="userSpaceOnUse">
<stop stop-color="#009A9A"/>
<stop offset="1" stop-color="#FFB100"/>
</linearGradient>
<linearGradient id="paint2_linear_3762_131003" x1="358.501" y1="1048.87" x2="392.403" y2="1074.17" gradientUnits="userSpaceOnUse">
<stop stop-color="#009A9A"/>
<stop offset="1" stop-color="#FFB100"/>
</linearGradient>
<linearGradient id="paint3_linear_3762_131003" x1="352.885" y1="1047.64" x2="278.071" y2="1038.81" gradientUnits="userSpaceOnUse">
<stop stop-color="#009A9A"/>
<stop offset="1" stop-color="#FFB100"/>
</linearGradient>
<linearGradient id="paint4_linear_3762_131003" x1="545.435" y1="1082.25" x2="459.448" y2="1087.16" gradientUnits="userSpaceOnUse">
<stop stop-color="#009A9A"/>
<stop offset="1" stop-color="#FFB100"/>
</linearGradient>
<linearGradient id="paint5_linear_3762_131003" x1="35.316" y1="842.643" x2="-24.5309" y2="831.303" gradientUnits="userSpaceOnUse">
<stop stop-color="#009A9A"/>
<stop offset="1" stop-color="#FFB100"/>
</linearGradient>
<linearGradient id="paint6_linear_3762_131003" x1="42.9934" y1="842.302" x2="120.494" y2="859.101" gradientUnits="userSpaceOnUse">
<stop stop-color="#009A9A"/>
<stop offset="1" stop-color="#FFB100"/>
</linearGradient>
<clipPath id="clip0_3762_131003">
<rect width="1440" height="1170" fill="white"/>
</clipPath>
<clipPath id="clip1_3762_131003">
<rect width="804" height="804" fill="white" transform="translate(-387.95 657.59) rotate(-14.52)"/>
</clipPath>
</defs>
</svg>
